<?xml version="1.0" standalone="no"?>
 <!DOCTYPE svg PUBLIC "-//W3C//DTD SVG 1.1//EN" 
 "http://www.w3.org/Graphics/SVG/1.1/DTD/svg11.dtd"> 
<svg xmlns="http://www.w3.org/2000/svg" version="1.1" 
    width="8.92048cm" height="6.7564cm" viewBox="0 0 35120 26600 ">
<title>SVG Picture created as temp_reg-F.SilkS.svg date 2017/10/27 07:26:08 </title>
  <desc>Picture generated by PCBNEW </desc>
<g style="fill:#000000; fill-opacity:1;stroke:#000000; stroke-opacity:1;
stroke-linecap:round; stroke-linejoin:round; "
 transform="translate(0 0) scale(1 1)">
</g>
<g style="fill:#C2C200; fill-opacity:0.0; 
stroke:#C2C200; stroke-width:-0.000393701; stroke-opacity:1; 
stroke-linecap:round; stroke-linejoin:round;">
</g>
<g style="fill:#C2C200; fill-opacity:0.0; 
stroke:#C2C200; stroke-width:59.0551; stroke-opacity:1; 
stroke-linecap:round; stroke-linejoin:round;">
<path d="M6590 43
L6590 22543
" />
<path d="M35090 43
L6590 43
" />
<path d="M35090 22543
L35090 43
" />
<path d="M6590 22543
L35090 22543
" />
<path d="M17074 9530
L17206 9342
" />
<path d="M17299 9530
L17299 9136
L17149 9136
L17112 9155
L17093 9174
L17074 9211
L17074 9267
L17093 9305
L17112 9324
L17149 9342
L17299 9342
" />
<path d="M16962 9136
L16831 9530
L16699 9136
" />
<path d="M16587 9174
L16568 9155
L16531 9136
L16437 9136
L16399 9155
L16381 9174
L16362 9211
L16362 9249
L16381 9305
L16606 9530
L16362 9530
" />
</g>
<g style="fill:#008484; fill-opacity:0.0; 
stroke:#008484; stroke-width:59.0551; stroke-opacity:1; 
stroke-linecap:round; stroke-linejoin:round;">
</g>
<g style="fill:#008484; fill-opacity:0.0; 
stroke:#008484; stroke-width:120; stroke-opacity:1; 
stroke-linecap:round; stroke-linejoin:round;">
<path d="M22319 19064
L22319 18464
L22090 18464
L22033 18493
L22004 18521
L21976 18579
L21976 18664
L22004 18721
L22033 18750
L22090 18779
L22319 18779
" />
<path d="M21404 19064
L21747 19064
" />
<path d="M21576 19064
L21576 18464
L21633 18550
L21690 18607
L21747 18636
" />
<path d="M20833 19064
L21176 19064
" />
<path d="M21004 19064
L21004 18464
L21061 18550
L21119 18607
L21176 18636
" />
<path d="M22861 23007
L22890 23036
L22976 23064
L23033 23064
L23119 23036
L23176 22979
L23204 22921
L23233 22807
L23233 22721
L23204 22607
L23176 22550
L23119 22493
L23033 22464
L22976 22464
L22890 22493
L22861 22521
" />
<path d="M22490 22464
L22376 22464
L22319 22493
L22261 22550
L22233 22664
L22233 22864
L22261 22979
L22319 23036
L22376 23064
L22490 23064
L22547 23036
L22604 22979
L22633 22864
L22633 22664
L22604 22550
L22547 22493
L22490 22464
" />
<path d="M21976 23064
L21976 22464
L21633 23064
L21633 22464
" />
<path d="M21347 23064
L21347 22464
L21004 23064
L21004 22464
" />
<path d="M20861 23121
L20404 23121
" />
<path d="M20290 22521
L20261 22493
L20204 22464
L20061 22464
L20004 22493
L19976 22521
L19947 22579
L19947 22636
L19976 22721
L20319 23064
L19947 23064
" />
</g>
<g style="fill:#C2C200; fill-opacity:0.0; 
stroke:#C2C200; stroke-width:120; stroke-opacity:1; 
stroke-linecap:round; stroke-linejoin:round;">
</g>
<g style="fill:#C2C200; fill-opacity:0.0; 
stroke:#C2C200; stroke-width:59.0551; stroke-opacity:1; 
stroke-linecap:round; stroke-linejoin:round;">
<path d="M14419 7420
L14578 7579
" />
<path d="M14498 7499
L14777 7221
L14763 7287
L14763 7340
L14777 7380
" />
<path d="M14525 6969
L14498 6942
L14458 6929
L14432 6929
L14392 6942
L14326 6982
L14260 7048
L14220 7115
L14207 7154
L14207 7181
L14220 7221
L14246 7247
L14286 7261
L14313 7261
L14352 7247
L14419 7208
L14485 7141
L14525 7075
L14538 7035
L14538 7009
L14525 6969
" />
<path d="M14100 6730
L13915 6916
" />
<path d="M14220 6850
L14074 6995
L14034 7009
L13994 6995
L13955 6956
L13941 6916
L13941 6889
" />
<path d="M13637 6637
L13796 6797
" />
<path d="M13716 6717
L13994 6439
L13981 6505
L13981 6558
L13994 6598
" />
<path d="M13863 10663
L13863 10926
" />
<path d="M13957 10513
L14051 10794
L13807 10794
" />
<path d="M13695 10532
L13432 10532
L13601 10926
" />
<path d="M13113 10663
L13113 10926
" />
<path d="M13282 10663
L13282 10869
L13263 10907
L13226 10926
L13170 10926
L13132 10907
L13113 10888
" />
<path d="M12720 10926
L12945 10926
" />
<path d="M12832 10926
L12832 10532
L12870 10588
L12907 10626
L12945 10644
" />
<path d="M14210 11953
L14435 11953
" />
<path d="M14323 11953
L14323 11559
L14360 11616
L14398 11653
L14435 11672
" />
<path d="M13966 11559
L13929 11559
L13891 11578
L13873 11597
L13854 11634
L13835 11709
L13835 11803
L13854 11878
L13873 11916
L13891 11934
L13929 11953
L13966 11953
L14004 11934
L14023 11916
L14041 11878
L14060 11803
L14060 11709
L14041 11634
L14023 11597
L14004 11578
L13966 11559
" />
<path d="M13591 11559
L13554 11559
L13516 11578
L13498 11597
L13479 11634
L13460 11709
L13460 11803
L13479 11878
L13498 11916
L13516 11934
L13554 11953
L13591 11953
L13629 11934
L13648 11916
L13666 11878
L13685 11803
L13685 11709
L13666 11634
L13648 11597
L13629 11578
L13591 11559
" />
<path d="M13292 11691
L13292 11953
" />
<path d="M13292 11728
L13273 11709
L13235 11691
L13179 11691
L13142 11709
L13123 11747
L13123 11953
" />
<path d="M12729 11953
L12954 11953
" />
<path d="M12842 11953
L12842 11559
L12879 11616
L12917 11653
L12954 11672
" />
<path d="M9663 14489
L9888 14489
" />
<path d="M9776 14489
L9776 14095
L9813 14151
L9851 14189
L9888 14207
" />
<path d="M9420 14095
L9382 14095
L9345 14114
L9326 14132
L9307 14170
L9288 14245
L9288 14339
L9307 14414
L9326 14451
L9345 14470
L9382 14489
L9420 14489
L9457 14470
L9476 14451
L9495 14414
L9513 14339
L9513 14245
L9495 14170
L9476 14132
L9457 14114
L9420 14095
" />
<path d="M9045 14095
L9007 14095
L8970 14114
L8951 14132
L8932 14170
L8913 14245
L8913 14339
L8932 14414
L8951 14451
L8970 14470
L9007 14489
L9045 14489
L9082 14470
L9101 14451
L9120 14414
L9138 14339
L9138 14245
L9120 14170
L9101 14132
L9082 14114
L9045 14095
" />
<path d="M8745 14226
L8745 14489
" />
<path d="M8745 14264
L8726 14245
L8688 14226
L8632 14226
L8595 14245
L8576 14282
L8576 14489
" />
<path d="M8182 14489
L8407 14489
" />
<path d="M8295 14489
L8295 14095
L8332 14151
L8370 14189
L8407 14207
" />
<path d="M7939 14095
L7901 14095
L7864 14114
L7845 14132
L7826 14170
L7807 14245
L7807 14339
L7826 14414
L7845 14451
L7864 14470
L7901 14489
L7939 14489
L7976 14470
L7995 14451
L8014 14414
L8032 14339
L8032 14245
L8014 14170
L7995 14132
L7976 14114
L7939 14095
" />
<path d="M11144 19116
L11144 19341
" />
<path d="M11144 19229
L11538 19229
L11482 19266
L11444 19304
L11425 19341
" />
<path d="M11538 18872
L11538 18835
L11519 18797
L11500 18779
L11463 18760
L11388 18741
L11294 18741
L11219 18760
L11182 18779
L11163 18797
L11144 18835
L11144 18872
L11163 18910
L11182 18929
L11219 18947
L11294 18966
L11388 18966
L11463 18947
L11500 18929
L11519 18910
L11538 18872
" />
<path d="M11538 18498
L11538 18460
L11519 18423
L11500 18404
L11463 18385
L11388 18366
L11294 18366
L11219 18385
L11182 18404
L11163 18423
L11144 18460
L11144 18498
L11163 18535
L11182 18554
L11219 18573
L11294 18591
L11388 18591
L11463 18573
L11500 18554
L11519 18535
L11538 18498
" />
<path d="M11407 18198
L11144 18198
" />
<path d="M11369 18198
L11388 18179
L11407 18141
L11407 18085
L11388 18048
L11350 18029
L11144 18029
" />
<path d="M11144 17635
L11144 17860
" />
<path d="M11144 17748
L11538 17748
L11482 17785
L11444 17823
L11425 17860
" />
<path d="M11144 17260
L11144 17485
" />
<path d="M11144 17373
L11538 17373
L11482 17410
L11444 17448
L11425 17485
" />
<path d="M8913 11290
L8932 11308
L8988 11327
L9026 11327
L9082 11308
L9120 11271
L9138 11233
L9157 11158
L9157 11102
L9138 11027
L9120 10990
L9082 10952
L9026 10934
L8988 10934
L8932 10952
L8913 10971
" />
<path d="M8539 11327
L8763 11327
" />
<path d="M8651 11327
L8651 10934
L8688 10990
L8726 11027
L8763 11046
" />
<path d="M24131 4656
L24131 4262
L24037 4262
L23981 4281
L23943 4318
L23924 4356
L23906 4431
L23906 4487
L23924 4562
L23943 4599
L23981 4637
L24037 4656
L24131 4656
" />
<path d="M23531 4656
L23756 4656
" />
<path d="M23643 4656
L23643 4262
L23681 4318
L23718 4356
L23756 4374
" />
<path d="M14131 4122
L14131 3729
L14037 3729
L13981 3748
L13943 3785
L13924 3823
L13906 3898
L13906 3954
L13924 4029
L13943 4066
L13981 4104
L14037 4122
L14131 4122
" />
<path d="M13756 3766
L13737 3748
L13699 3729
L13606 3729
L13568 3748
L13549 3766
L13531 3804
L13531 3841
L13549 3898
L13774 4122
L13531 4122
" />
<path d="M24381 1804
L24381 1410
L24231 1410
L24193 1429
L24174 1447
L24156 1485
L24156 1541
L24174 1579
L24193 1597
L24231 1616
L24381 1616
" />
<path d="M24024 1410
L23781 1410
L23912 1560
L23856 1560
L23818 1579
L23799 1597
L23781 1635
L23781 1729
L23799 1766
L23818 1785
L23856 1804
L23968 1804
L24006 1785
L24024 1766
" />
</g>
<g style="fill:#008484; fill-opacity:0.0; 
stroke:#008484; stroke-width:59.0551; stroke-opacity:1; 
stroke-linecap:round; stroke-linejoin:round;">
</g>
<g style="fill:#008484; fill-opacity:0.0; 
stroke:#008484; stroke-width:120; stroke-opacity:1; 
stroke-linecap:round; stroke-linejoin:round;">
<path d="M6319 9236
L6919 9236
L6919 9007
L6890 8950
L6861 8921
L6804 8893
L6719 8893
L6661 8921
L6633 8950
L6604 9007
L6604 9236
" />
<path d="M6719 8379
L6319 8379
" />
<path d="M6947 8521
L6519 8664
L6519 8293
" />
<path d="M10376 10064
L10347 10093
L10319 10179
L10319 10236
L10347 10321
L10404 10379
L10461 10407
L10576 10436
L10661 10436
L10776 10407
L10833 10379
L10890 10321
L10919 10236
L10919 10179
L10890 10093
L10861 10064
" />
<path d="M10919 9693
L10919 9579
L10890 9521
L10833 9464
L10719 9436
L10519 9436
L10404 9464
L10347 9521
L10319 9579
L10319 9693
L10347 9750
L10404 9807
L10519 9836
L10719 9836
L10833 9807
L10890 9750
L10919 9693
" />
<path d="M10319 9179
L10919 9179
L10319 8836
L10919 8836
" />
<path d="M10319 8550
L10919 8550
L10319 8207
L10919 8207
" />
<path d="M10261 8064
L10261 7607
" />
<path d="M10861 7493
L10890 7464
L10919 7407
L10919 7264
L10890 7207
L10861 7179
L10804 7150
L10747 7150
L10661 7179
L10319 7521
L10319 7150
" />
</g>
<g style="fill:#C2C200; fill-opacity:0.0; 
stroke:#C2C200; stroke-width:120; stroke-opacity:1; 
stroke-linecap:round; stroke-linejoin:round;">
</g>
<g style="fill:#C2C200; fill-opacity:0.0; 
stroke:#C2C200; stroke-width:59.0551; stroke-opacity:1; 
stroke-linecap:round; stroke-linejoin:round;">
<path d="M25381 1804
L25381 1410
L25231 1410
L25193 1429
L25174 1447
L25156 1485
L25156 1541
L25174 1579
L25193 1597
L25231 1616
L25381 1616
" />
<path d="M24818 1410
L24893 1410
L24931 1429
L24949 1447
L24987 1504
L25006 1579
L25006 1729
L24987 1766
L24968 1785
L24931 1804
L24856 1804
L24818 1785
L24799 1766
L24781 1729
L24781 1635
L24799 1597
L24818 1579
L24856 1560
L24931 1560
L24968 1579
L24987 1597
L25006 1635
" />
</g>
<g style="fill:#008484; fill-opacity:0.0; 
stroke:#008484; stroke-width:59.0551; stroke-opacity:1; 
stroke-linecap:round; stroke-linejoin:round;">
</g>
<g style="fill:#008484; fill-opacity:0.0; 
stroke:#008484; stroke-width:120; stroke-opacity:1; 
stroke-linecap:round; stroke-linejoin:round;">
<path d="M27533 23064
L27533 22464
L27304 22464
L27247 22493
L27219 22521
L27190 22579
L27190 22664
L27219 22721
L27247 22750
L27304 22779
L27533 22779
" />
<path d="M26847 22721
L26904 22693
L26933 22664
L26961 22607
L26961 22579
L26933 22521
L26904 22493
L26847 22464
L26733 22464
L26676 22493
L26647 22521
L26619 22579
L26619 22607
L26647 22664
L26676 22693
L26733 22721
L26847 22721
L26904 22750
L26933 22779
L26961 22836
L26961 22950
L26933 23007
L26904 23036
L26847 23064
L26733 23064
L26676 23036
L26647 23007
L26619 22950
L26619 22836
L26647 22779
L26676 22750
L26733 22721
" />
<path d="M28361 19007
L28390 19036
L28476 19064
L28533 19064
L28619 19036
L28676 18979
L28704 18921
L28733 18807
L28733 18721
L28704 18607
L28676 18550
L28619 18493
L28533 18464
L28476 18464
L28390 18493
L28361 18521
" />
<path d="M27990 18464
L27876 18464
L27819 18493
L27761 18550
L27733 18664
L27733 18864
L27761 18979
L27819 19036
L27876 19064
L27990 19064
L28047 19036
L28104 18979
L28133 18864
L28133 18664
L28104 18550
L28047 18493
L27990 18464
" />
<path d="M27476 19064
L27476 18464
L27133 19064
L27133 18464
" />
<path d="M26847 19064
L26847 18464
L26504 19064
L26504 18464
" />
<path d="M26361 19121
L25904 19121
" />
<path d="M25790 18521
L25761 18493
L25704 18464
L25561 18464
L25504 18493
L25476 18521
L25447 18579
L25447 18636
L25476 18721
L25819 19064
L25447 19064
" />
</g>
<g style="fill:#C2C200; fill-opacity:0.0; 
stroke:#C2C200; stroke-width:120; stroke-opacity:1; 
stroke-linecap:round; stroke-linejoin:round;">
</g>
<g style="fill:#C2C200; fill-opacity:0.0; 
stroke:#C2C200; stroke-width:59.0551; stroke-opacity:1; 
stroke-linecap:round; stroke-linejoin:round;">
<path d="M29252 2858
L29440 2990
" />
<path d="M29252 3083
L29646 3083
L29646 2933
L29627 2896
L29609 2877
L29571 2858
L29515 2858
L29477 2877
L29459 2896
L29440 2933
L29440 3083
" />
<path d="M29252 2483
L29252 2708
" />
<path d="M29252 2596
L29646 2596
L29590 2633
L29552 2671
L29534 2708
" />
<path d="M16906 5561
L17037 5374
" />
<path d="M17131 5561
L17131 5168
L16981 5168
L16943 5187
L16924 5205
L16906 5243
L16906 5299
L16924 5336
L16943 5355
L16981 5374
L17131 5374
" />
<path d="M16756 5205
L16737 5187
L16699 5168
L16606 5168
L16568 5187
L16549 5205
L16531 5243
L16531 5280
L16549 5336
L16774 5561
L16531 5561
" />
<path d="M27406 3811
L27537 3624
" />
<path d="M27631 3811
L27631 3418
L27481 3418
L27443 3437
L27424 3455
L27406 3493
L27406 3549
L27424 3586
L27443 3605
L27481 3624
L27631 3624
" />
<path d="M27274 3418
L27031 3418
L27162 3568
L27106 3568
L27068 3586
L27049 3605
L27031 3643
L27031 3736
L27049 3774
L27068 3793
L27106 3811
L27218 3811
L27256 3793
L27274 3774
" />
<path d="M31252 15608
L31440 15740
" />
<path d="M31252 15833
L31646 15833
L31646 15683
L31627 15646
L31609 15627
L31571 15608
L31515 15608
L31477 15627
L31459 15646
L31440 15683
L31440 15833
" />
<path d="M31515 15271
L31252 15271
" />
<path d="M31665 15365
L31384 15458
L31384 15215
" />
<path d="M16906 10130
L17037 9943
" />
<path d="M17131 10130
L17131 9737
L16981 9737
L16943 9755
L16924 9774
L16906 9812
L16906 9868
L16924 9905
L16943 9924
L16981 9943
L17131 9943
" />
<path d="M16549 9737
L16737 9737
L16756 9924
L16737 9905
L16699 9887
L16606 9887
L16568 9905
L16549 9924
L16531 9962
L16531 10055
L16549 10093
L16568 10112
L16606 10130
L16699 10130
L16737 10112
L16756 10093
" />
<path d="M16656 17630
L16787 17443
" />
<path d="M16881 17630
L16881 17237
L16731 17237
L16693 17255
L16674 17274
L16656 17312
L16656 17368
L16674 17405
L16693 17424
L16731 17443
L16881 17443
" />
<path d="M16524 17237
L16262 17237
L16431 17630
" />
<path d="M16656 17061
L16787 16874
" />
<path d="M16881 17061
L16881 16668
L16731 16668
L16693 16687
L16674 16705
L16656 16743
L16656 16799
L16674 16836
L16693 16855
L16731 16874
L16881 16874
" />
<path d="M16431 16836
L16468 16818
L16487 16799
L16506 16761
L16506 16743
L16487 16705
L16468 16687
L16431 16668
L16356 16668
L16318 16687
L16299 16705
L16281 16743
L16281 16761
L16299 16799
L16318 16818
L16356 16836
L16431 16836
L16468 16855
L16487 16874
L16506 16911
L16506 16986
L16487 17024
L16468 17043
L16431 17061
L16356 17061
L16318 17043
L16299 17024
L16281 16986
L16281 16911
L16299 16874
L16318 16855
L16356 16836
" />
<path d="M13906 20130
L14037 19943
" />
<path d="M14131 20130
L14131 19737
L13981 19737
L13943 19755
L13924 19774
L13906 19812
L13906 19868
L13924 19905
L13943 19924
L13981 19943
L14131 19943
" />
<path d="M13718 20130
L13643 20130
L13606 20112
L13587 20093
L13549 20037
L13531 19962
L13531 19812
L13549 19774
L13568 19755
L13606 19737
L13681 19737
L13718 19755
L13737 19774
L13756 19812
L13756 19905
L13737 19943
L13718 19962
L13681 19980
L13606 19980
L13568 19962
L13549 19943
L13531 19905
" />
<path d="M14093 19561
L14224 19374
" />
<path d="M14318 19561
L14318 19168
L14168 19168
L14131 19187
L14112 19205
L14093 19243
L14093 19299
L14112 19336
L14131 19355
L14168 19374
L14318 19374
" />
<path d="M13718 19561
L13943 19561
" />
<path d="M13831 19561
L13831 19168
L13868 19224
L13906 19261
L13943 19280
" />
<path d="M13474 19168
L13437 19168
L13399 19187
L13381 19205
L13362 19243
L13343 19318
L13343 19411
L13362 19486
L13381 19524
L13399 19543
L13437 19561
L13474 19561
L13512 19543
L13531 19524
L13549 19486
L13568 19411
L13568 19318
L13549 19243
L13531 19205
L13512 19187
L13474 19168
" />
<path d="M18824 4162
L18956 3974
" />
<path d="M19049 4162
L19049 3768
L18899 3768
L18862 3787
L18843 3806
L18824 3843
L18824 3899
L18843 3937
L18862 3956
L18899 3974
L19049 3974
" />
<path d="M18712 3768
L18581 4162
L18449 3768
" />
<path d="M18112 4162
L18337 4162
" />
<path d="M18224 4162
L18224 3768
L18262 3824
L18299 3862
L18337 3881
" />
<path d="M34768 10843
L34449 10843
L34412 10824
L34393 10805
L34374 10768
L34374 10693
L34393 10655
L34412 10637
L34449 10618
L34768 10618
" />
<path d="M34374 10224
L34374 10449
" />
<path d="M34374 10337
L34768 10337
L34712 10374
L34674 10412
L34656 10449
" />
<path d="M29276 2080
L29295 2118
L29332 2155
L29388 2212
L29407 2249
L29407 2287
" />
<path d="M29313 2268
L29332 2305
L29370 2343
L29445 2362
L29576 2362
L29651 2343
L29688 2305
L29707 2268
L29707 2193
L29688 2155
L29651 2118
L29576 2099
L29445 2099
L29370 2118
L29332 2155
L29313 2193
L29313 2268
" />
<path d="M29313 1724
L29313 1949
" />
<path d="M29313 1837
L29707 1837
L29651 1874
L29613 1912
L29595 1949
" />
<path d="M14890 15995
L14890 16313
L14871 16351
L14852 16369
L14815 16388
L14740 16388
L14702 16369
L14684 16351
L14665 16313
L14665 15995
" />
<path d="M14496 16032
L14477 16013
L14440 15995
L14346 15995
L14309 16013
L14290 16032
L14271 16070
L14271 16107
L14290 16163
L14515 16388
L14271 16388
" />
<path d="M7556 18280
L7237 18280
L7199 18261
L7181 18243
L7162 18205
L7162 18130
L7181 18093
L7199 18074
L7237 18055
L7556 18055
" />
<path d="M7162 17662
L7162 17887
" />
<path d="M7162 17774
L7556 17774
L7499 17812
L7462 17849
L7443 17887
" />
<path d="M7162 17287
L7162 17512
" />
<path d="M7162 17399
L7556 17399
L7499 17437
L7462 17474
L7443 17512
" />
<path d="M23329 2833
L23723 2833
L23723 2683
L23704 2646
L23685 2627
L23648 2608
L23592 2608
L23554 2627
L23535 2646
L23517 2683
L23517 2833
" />
<path d="M23723 2252
L23723 2440
L23535 2458
L23554 2440
L23573 2402
L23573 2308
L23554 2271
L23535 2252
L23498 2233
L23404 2233
L23367 2252
L23348 2271
L23329 2308
L23329 2402
L23348 2440
L23367 2458
" />
<path d="M28510 12947
L28697 13078
" />
<path d="M28510 13172
L28903 13172
L28903 13022
L28884 12984
L28866 12966
L28828 12947
L28772 12947
L28735 12966
L28716 12984
L28697 13022
L28697 13172
" />
<path d="M28903 12609
L28903 12684
L28884 12722
L28866 12741
L28809 12778
L28735 12797
L28585 12797
L28547 12778
L28528 12759
L28510 12722
L28510 12647
L28528 12609
L28547 12591
L28585 12572
L28678 12572
L28716 12591
L28735 12609
L28753 12647
L28753 12722
L28735 12759
L28716 12778
L28678 12797
" />
<path d="M25510 13134
L25697 13266
" />
<path d="M25510 13359
L25903 13359
L25903 13209
L25884 13172
L25866 13153
L25828 13134
L25772 13134
L25735 13153
L25716 13172
L25697 13209
L25697 13359
" />
<path d="M25510 12759
L25510 12984
" />
<path d="M25510 12872
L25903 12872
L25847 12909
L25809 12947
L25791 12984
" />
<path d="M25510 12384
L25510 12609
" />
<path d="M25510 12497
L25903 12497
L25847 12534
L25809 12572
L25791 12609
" />
<path d="M22510 13134
L22697 13266
" />
<path d="M22510 13359
L22903 13359
L22903 13209
L22884 13172
L22866 13153
L22828 13134
L22772 13134
L22735 13153
L22716 13172
L22697 13209
L22697 13359
" />
<path d="M22510 12759
L22510 12984
" />
<path d="M22510 12872
L22903 12872
L22847 12909
L22809 12947
L22791 12984
" />
<path d="M22866 12609
L22884 12591
L22903 12553
L22903 12459
L22884 12422
L22866 12403
L22828 12384
L22791 12384
L22735 12403
L22510 12628
L22510 12384
" />
<path d="M11318 7554
L11318 7160
L11168 7160
L11131 7179
L11112 7197
L11093 7235
L11093 7291
L11112 7329
L11131 7347
L11168 7366
L11318 7366
" />
<path d="M10718 7554
L10943 7554
" />
<path d="M10831 7554
L10831 7160
L10868 7216
L10906 7254
L10943 7272
" />
<path d="M10474 7160
L10437 7160
L10399 7179
L10381 7197
L10362 7235
L10343 7310
L10343 7404
L10362 7479
L10381 7516
L10399 7535
L10437 7554
L10474 7554
L10512 7535
L10531 7516
L10549 7479
L10568 7404
L10568 7310
L10549 7235
L10531 7197
L10512 7179
L10474 7160
" />
<path d="M26381 1804
L26381 1410
L26231 1410
L26193 1429
L26174 1447
L26156 1485
L26156 1541
L26174 1579
L26193 1597
L26231 1616
L26381 1616
" />
<path d="M26006 1447
L25987 1429
L25949 1410
L25856 1410
L25818 1429
L25799 1447
L25781 1485
L25781 1522
L25799 1579
L26024 1804
L25781 1804
" />
<path d="M13843 2380
L13974 2193
" />
<path d="M14068 2380
L14068 1987
L13918 1987
L13881 2005
L13862 2024
L13843 2062
L13843 2118
L13862 2155
L13881 2174
L13918 2193
L14068 2193
" />
<path d="M13468 2380
L13693 2380
" />
<path d="M13581 2380
L13581 1987
L13618 2043
L13656 2080
L13693 2099
" />
<path d="M13131 2118
L13131 2380
" />
<path d="M13224 1968
L13318 2249
L13074 2249
" />
<path d="M31593 18116
L31574 18135
L31556 18191
L31556 18229
L31574 18285
L31612 18323
L31649 18341
L31724 18360
L31781 18360
L31856 18341
L31893 18323
L31931 18285
L31949 18229
L31949 18191
L31931 18135
L31912 18116
" />
<path d="M31912 17966
L31931 17948
L31949 17910
L31949 17816
L31931 17779
L31912 17760
L31874 17741
L31837 17741
L31781 17760
L31556 17985
L31556 17741
" />
<path d="M18631 13804
L18631 13410
L18481 13410
L18443 13429
L18424 13447
L18406 13485
L18406 13541
L18424 13579
L18443 13597
L18481 13616
L18631 13616
" />
<path d="M18031 13804
L18256 13804
" />
<path d="M18143 13804
L18143 13410
L18181 13466
L18218 13504
L18256 13522
" />
<path d="M11318 19554
L11318 19160
L11168 19160
L11131 19179
L11112 19197
L11093 19235
L11093 19291
L11112 19329
L11131 19347
L11168 19366
L11318 19366
" />
<path d="M10718 19554
L10943 19554
" />
<path d="M10831 19554
L10831 19160
L10868 19216
L10906 19254
L10943 19272
" />
<path d="M10568 19197
L10549 19179
L10512 19160
L10418 19160
L10381 19179
L10362 19197
L10343 19235
L10343 19272
L10362 19329
L10587 19554
L10343 19554
" />
<path d="M14074 6162
L14206 5974
" />
<path d="M14299 6162
L14299 5768
L14149 5768
L14112 5787
L14093 5806
L14074 5843
L14074 5899
L14093 5937
L14112 5956
L14149 5974
L14299 5974
" />
<path d="M13962 5768
L13831 6162
L13699 5768
" />
<path d="M13606 5768
L13362 5768
L13493 5918
L13437 5918
L13399 5937
L13381 5956
L13362 5993
L13362 6087
L13381 6124
L13399 6143
L13437 6162
L13549 6162
L13587 6143
L13606 6124
" />
</g>
<g style="fill:#008484; fill-opacity:0.0; 
stroke:#008484; stroke-width:59.0551; stroke-opacity:1; 
stroke-linecap:round; stroke-linejoin:round;">
</g>
<g style="fill:#008484; fill-opacity:0.0; 
stroke:#008484; stroke-width:47.2441; stroke-opacity:1; 
stroke-linecap:round; stroke-linejoin:round;">
<path d="M18224.4 10799.1 A454.724 454.724 0.0 0 0 18216.5 9889.76 " />
<path d="M18224.6 9890.17 A454.387 454.387 0.0 0 0 17766.5 10407.5 " />
<path d="M18763 9793
L18763 11789
" />
<path d="M18763 11789
L18373 11789
" />
<path d="M18373 11789
L18373 11639
" />
<path d="M18373 11639
L15307 11639
" />
<path d="M15307 11639
L15307 11789
" />
<path d="M15307 11789
L14917 11789
" />
<path d="M14917 11789
L14917 9793
" />
<path d="M14917 9793
L18763 9793
" />
<path d="M18561 10633
L17927 9999
" />
<path d="M18506 10688
L18233 10416
" />
<path d="M18217 10400
L17871 10055
" />
<path d="M18858 10486
L18858 9698
" />
<path d="M18858 9698
L18070 9698
" />
</g>
<g style="fill:#008484; fill-opacity:0.0; 
stroke:#008484; stroke-width:120; stroke-opacity:1; 
stroke-linecap:round; stroke-linejoin:round;">
<path d="M19590 21793
L23590 21793
" />
<path d="M19590 22293
L19590 19293
" />
<path d="M19590 19293
L23590 19293
" />
<path d="M23590 19293
L23590 22293
" />
<path d="M23590 22293
L19590 22293
" />
</g>
<g style="fill:#008484; fill-opacity:0.0; 
stroke:#008484; stroke-width:47.2441; stroke-opacity:1; 
stroke-linecap:round; stroke-linejoin:round;">
<path d="M14138.6 8157.17 A822.835 822.835 0.0 0 0 13058.7 7077.73 " />
<path d="M12624.9 7511.51 A822.835 822.835 0.0 0 0 13704.3 8591.45 " />
<path d="M13059 7077.58 A822.835 822.835 0.0 0 0 12624.9 7511.51 " />
<path d="M13164 8051
L12810 8405
" />
<path d="M13952 7263
L13598 7617
" />
<path d="M13941 7252
L13587 7606
" />
<path d="M13153 8040
L12799 8394
" />
<path d="M13929 7241
L13576 7595
" />
<path d="M13142 8029
L12788 8382
" />
<path d="M13918 7231
L13565 7583
" />
<path d="M13131 8018
L12778 8370
" />
<path d="M13906 7220
L13554 7572
" />
<path d="M13119 8007
L12768 8358
" />
<path d="M13894 7210
L13543 7561
" />
<path d="M13108 7995
L12757 8347
" />
<path d="M13881 7200
L13532 7550
" />
<path d="M13097 7984
L12747 8334
" />
<path d="M13869 7190
L13520 7539
" />
<path d="M13086 7973
L12738 8322
" />
<path d="M13856 7181
L13509 7528
" />
<path d="M13075 7962
L12728 8309
" />
<path d="M13843 7172
L13498 7517
" />
<path d="M13064 7951
L12719 8296
" />
<path d="M13830 7163
L13487 7506
" />
<path d="M13053 7940
L12710 8283
" />
<path d="M13817 7154
L13476 7494
" />
<path d="M13042 7929
L12701 8269
" />
<path d="M13803 7145
L13465 7483
" />
<path d="M13030 7918
L12692 8256
" />
<path d="M13789 7137
L13454 7472
" />
<path d="M13019 7906
L12684 8242
" />
<path d="M13775 7129
L13442 7461
" />
<path d="M13008 7895
L12676 8228
" />
<path d="M13761 7121
L13431 7450
" />
<path d="M12997 7884
L12668 8213
" />
<path d="M13746 7113
L13420 7439
" />
<path d="M12986 7873
L12660 8199
" />
<path d="M13731 7105
L13409 7428
" />
<path d="M12975 7862
L12653 8184
" />
<path d="M13716 7098
L13398 7416
" />
<path d="M12963 7850
L12645 8169
" />
<path d="M13700 7091
L13386 7405
" />
<path d="M12952 7839
L12638 8153
" />
<path d="M13685 7085
L13375 7394
" />
<path d="M12941 7828
L12632 8137
" />
<path d="M13669 7078
L13364 7383
" />
<path d="M12930 7817
L12625 8122
" />
<path d="M13653 7072
L13353 7372
" />
<path d="M12919 7806
L12619 8105
" />
<path d="M13636 7066
L13342 7360
" />
<path d="M12908 7795
L12613 8089
" />
<path d="M13619 7061
L13331 7349
" />
<path d="M12897 7784
L12608 8072
" />
<path d="M13602 7055
L13320 7338
" />
<path d="M12885 7772
L12603 8055
" />
<path d="M13585 7051
L13309 7327
" />
<path d="M12874 7761
L12598 8038
" />
<path d="M13567 7046
L13297 7316
" />
<path d="M12863 7750
L12593 8020
" />
<path d="M13549 7042
L13286 7305
" />
<path d="M12852 7739
L12589 8002
" />
<path d="M13531 7038
L13275 7294
" />
<path d="M12841 7728
L12585 7984
" />
<path d="M13512 7034
L13264 7283
" />
<path d="M12830 7717
L12581 7965
" />
<path d="M13493 7031
L13253 7271
" />
<path d="M12819 7706
L12578 7946
" />
<path d="M13474 7028
L13242 7260
" />
<path d="M12807 7695
L12576 7926
" />
<path d="M13454 7026
L13231 7249
" />
<path d="M12796 7683
L12573 7906
" />
<path d="M13433 7024
L13219 7238
" />
<path d="M12785 7672
L12572 7886
" />
<path d="M13412 7023
L13208 7227
" />
<path d="M12774 7661
L12570 7865
" />
<path d="M13391 7022
L13197 7216
" />
<path d="M12763 7650
L12569 7843
" />
<path d="M13369 7022
L13186 7205
" />
<path d="M12752 7639
L12569 7821
" />
<path d="M13346 7022
L13175 7193
" />
<path d="M12741 7628
L12569 7799
" />
<path d="M13323 7023
L12571 7776
" />
<path d="M13299 7025
L12572 7752
" />
<path d="M13274 7028
L12575 7727
" />
<path d="M13248 7031
L12578 7701
" />
<path d="M13222 7035
L12582 7674
" />
<path d="M13194 7041
L12588 7647
" />
<path d="M13165 7048
L12595 7617
" />
<path d="M13134 7056
L12604 7587
" />
<path d="M13101 7067
L12614 7554
" />
<path d="M13065 7080
L12628 7518
" />
<path d="M13026 7097
L12644 7479
" />
<path d="M12982 7119
L12666 7435
" />
<path d="M12929 7150
L12697 7381
" />
<path d="M12848 7209
L12756 7301
" />
<path d="M14063 8516
L13813 8266
" />
<path d="M14063 8266
L13813 8516
" />
<path d="M12622.4 9850.39 A822.835 822.835 0.0 0 0 14149.3 9850.04 " />
<path d="M14149.3 9236.58 A822.835 822.835 0.0 0 0 12622.4 9236.22 " />
<path d="M14149.1 9850.39 A822.835 822.835 0.0 0 0 14149.3 9236.58 " />
<path d="M13385 9236
L13385 8736
" />
<path d="M13385 10350
L13385 9850
" />
<path d="M13401 10350
L13401 9850
" />
<path d="M13401 9236
L13401 8736
" />
<path d="M13417 10350
L13417 9850
" />
<path d="M13417 9236
L13417 8736
" />
<path d="M13432 10349
L13432 9850
" />
<path d="M13432 9236
L13432 8737
" />
<path d="M13448 10348
L13448 9850
" />
<path d="M13448 9236
L13448 8738
" />
<path d="M13464 10346
L13464 9850
" />
<path d="M13464 9236
L13464 8739
" />
<path d="M13480 10345
L13480 9850
" />
<path d="M13480 9236
L13480 8741
" />
<path d="M13495 10343
L13495 9850
" />
<path d="M13495 9236
L13495 8743
" />
<path d="M13511 10340
L13511 9850
" />
<path d="M13511 9236
L13511 8745
" />
<path d="M13527 10338
L13527 9850
" />
<path d="M13527 9236
L13527 8748
" />
<path d="M13543 10335
L13543 9850
" />
<path d="M13543 9236
L13543 8751
" />
<path d="M13558 10332
L13558 9850
" />
<path d="M13558 9236
L13558 8754
" />
<path d="M13574 10328
L13574 9850
" />
<path d="M13574 9236
L13574 8757
" />
<path d="M13590 10324
L13590 9850
" />
<path d="M13590 9236
L13590 8761
" />
<path d="M13606 10320
L13606 9850
" />
<path d="M13606 9236
L13606 8766
" />
<path d="M13621 10316
L13621 9850
" />
<path d="M13621 9236
L13621 8770
" />
<path d="M13637 10311
L13637 9850
" />
<path d="M13637 9236
L13637 8775
" />
<path d="M13653 10305
L13653 9850
" />
<path d="M13653 9236
L13653 8780
" />
<path d="M13669 10300
L13669 9850
" />
<path d="M13669 9236
L13669 8786
" />
<path d="M13685 10294
L13685 9850
" />
<path d="M13685 9236
L13685 8792
" />
<path d="M13701 10287
L13701 9850
" />
<path d="M13701 9236
L13701 8798
" />
<path d="M13716 10281
L13716 9850
" />
<path d="M13716 9236
L13716 8805
" />
<path d="M13732 10274
L13732 9850
" />
<path d="M13732 9236
L13732 8812
" />
<path d="M13748 10266
L13748 9850
" />
<path d="M13748 9236
L13748 8820
" />
<path d="M13764 10258
L13764 9850
" />
<path d="M13764 9236
L13764 8827
" />
<path d="M13779 10250
L13779 9850
" />
<path d="M13779 9236
L13779 8836
" />
<path d="M13795 10241
L13795 9850
" />
<path d="M13795 9236
L13795 8845
" />
<path d="M13811 10232
L13811 9850
" />
<path d="M13811 9236
L13811 8854
" />
<path d="M13827 10222
L13827 9850
" />
<path d="M13827 9236
L13827 8864
" />
<path d="M13842 10212
L13842 9850
" />
<path d="M13842 9236
L13842 8874
" />
<path d="M13858 10201
L13858 9850
" />
<path d="M13858 9236
L13858 8885
" />
<path d="M13874 10190
L13874 9850
" />
<path d="M13874 9236
L13874 8896
" />
<path d="M13890 10178
L13890 9850
" />
<path d="M13890 9236
L13890 8908
" />
<path d="M13905 10165
L13905 9850
" />
<path d="M13905 9236
L13905 8920
" />
<path d="M13921 10152
L13921 9850
" />
<path d="M13921 9236
L13921 8934
" />
<path d="M13937 10138
L13937 9850
" />
<path d="M13937 9236
L13937 8948
" />
<path d="M13953 10124
L13953 9850
" />
<path d="M13953 9236
L13953 8962
" />
<path d="M13968 10108
L13968 9850
" />
<path d="M13968 9236
L13968 8977
" />
<path d="M13984 10092
L13984 9850
" />
<path d="M13984 9236
L13984 8994
" />
<path d="M14000 10075
L14000 9011
" />
<path d="M14016 10057
L14016 9029
" />
<path d="M14031 10037
L14031 9048
" />
<path d="M14047 10017
L14047 9069
" />
<path d="M14063 9995
L14063 9091
" />
<path d="M14079 9971
L14079 9114
" />
<path d="M14094 9946
L14094 9140
" />
<path d="M14110 9918
L14110 9168
" />
<path d="M14126 9887
L14126 9199
" />
<path d="M14142 9852
L14142 9233
" />
<path d="M14157 9813
L14157 9273
" />
<path d="M14173 9766
L14173 9320
" />
<path d="M14189 9706
L14189 9379
" />
<path d="M14205 9608
L14205 9478
" />
<path d="M12421 9543
L12775 9543
" />
<path d="M12598 9720
L12598 9366
" />
<path d="M13351 11382
L13813 11382
" />
<path d="M13351 10704
L13813 10704
" />
<path d="M9079 14704
L8617 14704
" />
<path d="M9079 15382
L8617 15382
" />
<path d="M10929 18532
L10929 18070
" />
<path d="M10251 18532
L10251 18070
" />
<circle cx="8848.35" cy="13043.3" r="1511.81" /> 
<path d="M8848 11547
L8848 14539
" />
<path d="M8832 11547
L8832 14539
" />
<path d="M8816 11547
L8816 14539
" />
<path d="M8801 11547
L8801 14538
" />
<path d="M8785 11548
L8785 14538
" />
<path d="M8769 11549
L8769 14537
" />
<path d="M8753 11550
L8753 14536
" />
<path d="M8738 11551
L8738 12657
" />
<path d="M8738 13429
L8738 14535
" />
<path d="M8722 11552
L8722 12657
" />
<path d="M8722 13429
L8722 14534
" />
<path d="M8706 11553
L8706 12657
" />
<path d="M8706 13429
L8706 14533
" />
<path d="M8690 11555
L8690 12657
" />
<path d="M8690 13429
L8690 14531
" />
<path d="M8675 11557
L8675 12657
" />
<path d="M8675 13429
L8675 14529
" />
<path d="M8659 11559
L8659 12657
" />
<path d="M8659 13429
L8659 14527
" />
<path d="M8643 11561
L8643 12657
" />
<path d="M8643 13429
L8643 14525
" />
<path d="M8627 11563
L8627 12657
" />
<path d="M8627 13429
L8627 14523
" />
<path d="M8612 11565
L8612 12657
" />
<path d="M8612 13429
L8612 14520
" />
<path d="M8596 11568
L8596 12657
" />
<path d="M8596 13429
L8596 14518
" />
<path d="M8580 11570
L8580 12657
" />
<path d="M8580 13429
L8580 14515
" />
<path d="M8564 11574
L8564 12657
" />
<path d="M8564 13429
L8564 14512
" />
<path d="M8548 11576
L8548 12657
" />
<path d="M8548 13429
L8548 14509
" />
<path d="M8532 11580
L8532 12657
" />
<path d="M8532 13429
L8532 14506
" />
<path d="M8517 11583
L8517 12657
" />
<path d="M8517 13429
L8517 14502
" />
<path d="M8501 11587
L8501 12657
" />
<path d="M8501 13429
L8501 14499
" />
<path d="M8485 11590
L8485 12657
" />
<path d="M8485 13429
L8485 14495
" />
<path d="M8469 11594
L8469 12657
" />
<path d="M8469 13429
L8469 14491
" />
<path d="M8454 11599
L8454 12657
" />
<path d="M8454 13429
L8454 14487
" />
<path d="M8438 11603
L8438 12657
" />
<path d="M8438 13429
L8438 14483
" />
<path d="M8422 11608
L8422 12657
" />
<path d="M8422 13429
L8422 14478
" />
<path d="M8407 11612
L8407 12657
" />
<path d="M8407 13429
L8407 14474
" />
<path d="M8391 11617
L8391 12657
" />
<path d="M8391 13429
L8391 14468
" />
<path d="M8375 11622
L8375 12657
" />
<path d="M8375 13429
L8375 14463
" />
<path d="M8359 11627
L8359 12657
" />
<path d="M8359 13429
L8359 14458
" />
<path d="M8344 11633
L8344 12657
" />
<path d="M8344 13429
L8344 14453
" />
<path d="M8328 11639
L8328 12657
" />
<path d="M8328 13429
L8328 14447
" />
<path d="M8312 11644
L8312 12657
" />
<path d="M8312 13429
L8312 14441
" />
<path d="M8296 11651
L8296 12657
" />
<path d="M8296 13429
L8296 14435
" />
<path d="M8281 11657
L8281 12657
" />
<path d="M8281 13429
L8281 14429
" />
<path d="M8265 11663
L8265 12657
" />
<path d="M8265 13429
L8265 14422
" />
<path d="M8249 11670
L8249 12657
" />
<path d="M8249 13429
L8249 14416
" />
<path d="M8233 11677
L8233 12657
" />
<path d="M8233 13429
L8233 14409
" />
<path d="M8218 11684
L8218 12657
" />
<path d="M8218 13429
L8218 14401
" />
<path d="M8202 11691
L8202 12657
" />
<path d="M8202 13429
L8202 14394
" />
<path d="M8186 11699
L8186 12657
" />
<path d="M8186 13429
L8186 14387
" />
<path d="M8170 11707
L8170 12657
" />
<path d="M8170 13429
L8170 14379
" />
<path d="M8155 11715
L8155 12657
" />
<path d="M8155 13429
L8155 14371
" />
<path d="M8139 11723
L8139 12657
" />
<path d="M8139 13429
L8139 14362
" />
<path d="M8123 11731
L8123 12657
" />
<path d="M8123 13429
L8123 14354
" />
<path d="M8107 11740
L8107 12657
" />
<path d="M8107 13429
L8107 14346
" />
<path d="M8092 11749
L8092 12657
" />
<path d="M8092 13429
L8092 14337
" />
<path d="M8076 11758
L8076 12657
" />
<path d="M8076 13429
L8076 14327
" />
<path d="M8060 11768
L8060 12657
" />
<path d="M8060 13429
L8060 14318
" />
<path d="M8044 11777
L8044 12657
" />
<path d="M8044 13429
L8044 14308
" />
<path d="M8029 11788
L8029 12657
" />
<path d="M8029 13429
L8029 14298
" />
<path d="M8013 11798
L8013 12657
" />
<path d="M8013 13429
L8013 14288
" />
<path d="M7997 11809
L7997 12657
" />
<path d="M7997 13429
L7997 14277
" />
<path d="M7981 11819
L7981 12657
" />
<path d="M7981 13429
L7981 14266
" />
<path d="M7966 11831
L7966 14255
" />
<path d="M7950 11842
L7950 14244
" />
<path d="M7934 11854
L7934 14232
" />
<path d="M7918 11866
L7918 14220
" />
<path d="M7903 11878
L7903 14207
" />
<path d="M7887 11891
L7887 14195
" />
<path d="M7871 11904
L7871 14181
" />
<path d="M7855 11918
L7855 14168
" />
<path d="M7840 11931
L7840 14154
" />
<path d="M7824 11946
L7824 14140
" />
<path d="M7808 11961
L7808 14125
" />
<path d="M7792 11975
L7792 14110
" />
<path d="M7777 11991
L7777 14094
" />
<path d="M7761 12007
L7761 14078
" />
<path d="M7745 12024
L7745 14062
" />
<path d="M7729 12041
L7729 14045
" />
<path d="M7714 12059
L7714 14027
" />
<path d="M7698 12077
L7698 14009
" />
<path d="M7682 12095
L7682 13990
" />
<path d="M7666 12115
L7666 13971
" />
<path d="M7651 12135
L7651 13951
" />
<path d="M7635 12155
L7635 13930
" />
<path d="M7619 12177
L7619 13909
" />
<path d="M7603 12200
L7603 13886
" />
<path d="M7588 12223
L7588 13863
" />
<path d="M7572 12247
L7572 13839
" />
<path d="M7556 12272
L7556 13813
" />
<path d="M7540 12299
L7540 13787
" />
<path d="M7525 12326
L7525 13759
" />
<path d="M7509 12356
L7509 13730
" />
<path d="M7493 12387
L7493 13699
" />
<path d="M7477 12419
L7477 13666
" />
<path d="M7462 12454
L7462 13631
" />
<path d="M7446 12492
L7446 13594
" />
<path d="M7430 12532
L7430 13553
" />
<path d="M7414 12577
L7414 13509
" />
<path d="M7399 12627
L7399 13459
" />
<path d="M7383 12683
L7383 13402
" />
<path d="M7367 12751
L7367 13334
" />
<path d="M7351 12841
L7351 13245
" />
<path d="M10206 13043
L9734 13043
" />
<path d="M9970 12787
L9970 13299
" />
<path d="M24454.6 5156.88 A783.465 783.465 0.0 0 0 23182.1 5218.66 " />
<path d="M23182.1 6067.96 A783.465 783.465 0.0 0 0 24454.6 6129.73 " />
<path d="M24250.3 5218.11 A590.551 590.551 0.0 0 0 23430.6 5218.17 " />
<path d="M23430.6 6068.44 A590.551 590.551 0.0 0 0 24250.3 6068.5 " />
<path d="M24454 5156
L24454 5218
" />
<path d="M24454 6068
L24454 6129
" />
<path d="M13131 1814
L14549 1814
" />
<path d="M13131.8 1814.96 A1016.21 1016.21 0.0 0 0 12925.4 2101.26 " />
<path d="M12912.8 2975.91 A1023.62 1023.62 0.0 0 0 13840.5 3566.93 " />
<path d="M13840.5 3566.93 A1023.62 1023.62 0.0 0 0 14768.2 2975.91 " />
<path d="M14755.5 2101.26 A1016.21 1016.21 0.0 0 0 14549.1 1814.96 " />
<path d="M24614 3066
L23566 3066
" />
<path d="M24614 3043
L24614 3066
" />
<path d="M23566 3043
L23566 3066
" />
<path d="M24614 3043
L23566 3043
" />
<path d="M24614 2543
L24614 2019
" />
<path d="M24614 2019
L24090 2019
" />
</g>
<g style="fill:#008484; fill-opacity:0.0; 
stroke:#008484; stroke-width:120; stroke-opacity:1; 
stroke-linecap:round; stroke-linejoin:round;">
<path d="M9590 10793
L9590 6793
" />
<path d="M10090 10793
L7090 10793
" />
<path d="M7090 10793
L7090 6793
" />
<path d="M7090 6793
L10090 6793
" />
<path d="M10090 6793
L10090 10793
" />
</g>
<g style="fill:#008484; fill-opacity:0.0; 
stroke:#008484; stroke-width:47.2441; stroke-opacity:1; 
stroke-linecap:round; stroke-linejoin:round;">
<path d="M25614 3066
L24566 3066
" />
<path d="M25614 3043
L25614 3066
" />
<path d="M24566 3043
L24566 3066
" />
<path d="M25614 3043
L24566 3043
" />
<path d="M25614 2543
L25614 2019
" />
<path d="M25614 2019
L25090 2019
" />
</g>
<g style="fill:#008484; fill-opacity:0.0; 
stroke:#008484; stroke-width:120; stroke-opacity:1; 
stroke-linecap:round; stroke-linejoin:round;">
<path d="M29090 19793
L25090 19793
" />
<path d="M29090 19293
L29090 22293
" />
<path d="M29090 22293
L25090 22293
" />
<path d="M25090 22293
L25090 19293
" />
<path d="M25090 19293
L29090 19293
" />
</g>
<g style="fill:#008484; fill-opacity:0.0; 
stroke:#008484; stroke-width:47.2441; stroke-opacity:1; 
stroke-linecap:round; stroke-linejoin:round;">
<path d="M29824 1529
L30856 1529
" />
<path d="M30856 1529
L30856 4057
" />
<path d="M30856 4057
L29824 4057
" />
<path d="M29824 4057
L29824 1529
" />
<path d="M30340 1179
L30340 1529
" />
<path d="M30340 4407
L30340 4057
" />
<path d="M18104 5777
L18104 6809
" />
<path d="M18104 6809
L15576 6809
" />
<path d="M15576 6809
L15576 5777
" />
<path d="M15576 5777
L18104 5777
" />
<path d="M18454 6293
L18104 6293
" />
<path d="M15226 6293
L15576 6293
" />
<path d="M28604 4027
L28604 5059
" />
<path d="M28604 5059
L26076 5059
" />
<path d="M26076 5059
L26076 4027
" />
<path d="M26076 4027
L28604 4027
" />
<path d="M28954 4543
L28604 4543
" />
<path d="M25726 4543
L26076 4543
" />
<path d="M31824 14279
L32856 14279
" />
<path d="M32856 14279
L32856 16807
" />
<path d="M32856 16807
L31824 16807
" />
<path d="M31824 16807
L31824 14279
" />
<path d="M32340 13929
L32340 14279
" />
<path d="M32340 17157
L32340 16807
" />
<path d="M15576 9559
L15576 8527
" />
<path d="M15576 8527
L18104 8527
" />
<path d="M18104 8527
L18104 9559
" />
<path d="M18104 9559
L15576 9559
" />
<path d="M15226 9043
L15576 9043
" />
<path d="M18454 9043
L18104 9043
" />
<path d="M15326 17059
L15326 16027
" />
<path d="M15326 16027
L17854 16027
" />
<path d="M17854 16027
L17854 17059
" />
<path d="M17854 17059
L15326 17059
" />
<path d="M14976 16543
L15326 16543
" />
<path d="M18204 16543
L17854 16543
" />
<path d="M17854 17277
L17854 18309
" />
<path d="M17854 18309
L15326 18309
" />
<path d="M15326 18309
L15326 17277
" />
<path d="M15326 17277
L17854 17277
" />
<path d="M18204 17793
L17854 17793
" />
<path d="M14976 17793
L15326 17793
" />
<path d="M12576 19559
L12576 18527
" />
<path d="M12576 18527
L15104 18527
" />
<path d="M15104 18527
L15104 19559
" />
<path d="M15104 19559
L12576 19559
" />
<path d="M12226 19043
L12576 19043
" />
<path d="M15454 19043
L15104 19043
" />
<path d="M15104 19777
L15104 20809
" />
<path d="M15104 20809
L12576 20809
" />
<path d="M12576 20809
L12576 19777
" />
<path d="M12576 19777
L15104 19777
" />
<path d="M15454 20293
L15104 20293
" />
<path d="M12226 20293
L12576 20293
" />
<path d="M17206.6 2537.47 A454.724 454.724 0.0 0 0 17214.5 3446.85 " />
<path d="M17206.3 3446.44 A454.387 454.387 0.0 0 0 17664.5 2929.13 " />
<path d="M16667 3543
L16667 1547
" />
<path d="M16667 1547
L17057 1547
" />
<path d="M17057 1547
L17057 1696
" />
<path d="M17057 1696
L20123 1696
" />
<path d="M20123 1696
L20123 1547
" />
<path d="M20123 1547
L20513 1547
" />
<path d="M20513 1547
L20513 3543
" />
<path d="M20513 3543
L16667 3543
" />
<path d="M16869 2703
L17503 3337
" />
<path d="M16924 2647
L17197 2920
" />
<path d="M17213 2936
L17559 3281
" />
<path d="M16572 2850
L16572 3637
" />
<path d="M16572 3637
L17360 3637
" />
<path d="M34159 12559
L34159 8527
" />
<path d="M32332 12559
L32332 12456
" />
<path d="M32332 11629
L32332 11462
" />
<path d="M32332 10624
L32332 10462
" />
<path d="M32332 9624
L32332 9462
" />
<path d="M32332 8624
L32332 8527
" />
<path d="M34159 12559
L32332 12559
" />
<path d="M34159 8527
L32332 8527
" />
<path d="M33565 12559
L33565 8527
" />
<path d="M34159 11271
L33565 11271
" />
<path d="M34159 9814
L33565 9814
" />
<path d="M32332 11543
L31303 11543
" />
<path d="M32332 10543
L31303 10543
" />
<path d="M32332 9543
L31303 9543
" />
<path d="M27362 2751
L27362 1334
" />
<path d="M27362.1 2751.97 A1016.21 1016.21 0.0 0 0 27648.4 2958.34 " />
<path d="M28523.1 2971.02 A1023.62 1023.62 0.0 0 0 29114.1 2043.31 " />
<path d="M29114.1 2043.31 A1023.62 1023.62 0.0 0 0 28523.1 1115.59 " />
<path d="M27648.4 1128.27 A1016.21 1016.21 0.0 0 0 27362.1 1334.65 " />
<path d="M14984.2 15816.9 A393.701 393.701 0.0 0 0 14196.8 15816.9 " />
<path d="M14196 15816
L13704 15816
" />
<path d="M13704 15816
L13704 11769
" />
<path d="M13704 11769
L15476 11769
" />
<path d="M15476 11769
L15476 15816
" />
<path d="M15476 15816
L14984 15816
" />
</g>
<g style="fill:#008484; fill-opacity:0.0; 
stroke:#008484; stroke-width:59.0551; stroke-opacity:1; 
stroke-linecap:round; stroke-linejoin:round;">
<path d="M8140 17193
L8590 17193
" />
<path d="M8140 18393
L8590 18393
" />
<path d="M8590 19893
L10040 19893
" />
<path d="M10040 19893
L10040 15693
" />
<path d="M10040 15693
L8590 15693
" />
<path d="M8140 19893
L8590 19893
" />
<path d="M8590 19893
L8590 15693
" />
<path d="M8590 15693
L8140 15693
" />
<path d="M8140 17793
L8140 15693
" />
<path d="M8140 17793
L8140 19893
" />
</g>
<g style="fill:#008484; fill-opacity:0.0; 
stroke:#008484; stroke-width:47.2441; stroke-opacity:1; 
stroke-linecap:round; stroke-linejoin:round;">
<path d="M21066 3566
L21066 1519
" />
<path d="M22090 3566
L21066 3566
" />
<path d="M23114 1519
L21066 1519
" />
<path d="M22090 3566
L22090 2543
" />
<path d="M22090 2543
L23114 2543
" />
<path d="M23114 2543
L23114 1519
" />
<path d="M22590 3566
L23114 3566
" />
<path d="M23114 3566
L23114 3043
" />
<path d="M28294 16842
L25727 16842
" />
<path d="M25727 16842
L25727 8921
" />
<path d="M25727 8921
L28294 8921
" />
<path d="M28294 8921
L28294 16842
" />
<path d="M27010 17338
L27010 16842
" />
<path d="M27010 8425
L27010 8921
" />
<path d="M25294 16842
L22727 16842
" />
<path d="M22727 16842
L22727 8921
" />
<path d="M22727 8921
L25294 8921
" />
<path d="M25294 8921
L25294 16842
" />
<path d="M24010 17338
L24010 16842
" />
<path d="M24010 8425
L24010 8921
" />
<path d="M22294 16842
L19727 16842
" />
<path d="M19727 16842
L19727 8921
" />
<path d="M19727 8921
L22294 8921
" />
<path d="M22294 8921
L22294 16842
" />
<path d="M21010 17338
L21010 16842
" />
<path d="M21010 8425
L21010 8921
" />
<path d="M11364 9816
L10316 9816
" />
<path d="M11364 8793
L11364 9816
" />
<path d="M10316 8793
L10316 9816
" />
<path d="M11364 8793
L10316 8793
" />
<path d="M11364 8293
L11364 7769
" />
<path d="M11364 7769
L10840 7769
" />
<path d="M26614 3066
L25566 3066
" />
<path d="M26614 3043
L26614 3066
" />
<path d="M25566 3043
L25566 3066
" />
<path d="M26614 3043
L25566 3043
" />
<path d="M26614 2543
L26614 2019
" />
<path d="M26614 2019
L26090 2019
" />
<path d="M12326 1809
L12326 777
" />
<path d="M12326 777
L14854 777
" />
<path d="M14854 777
L14854 1809
" />
<path d="M14854 1809
L12326 1809
" />
<path d="M11976 1293
L12326 1293
" />
<path d="M15204 1293
L14854 1293
" />
<circle cx="29840.5" cy="18051.2" r="1511.81" /> 
<path d="M31336 18051
L28344 18051
" />
<path d="M31336 18035
L28344 18035
" />
<path d="M31336 18019
L28344 18019
" />
<path d="M31336 18003
L28344 18003
" />
<path d="M31335 17988
L28345 17988
" />
<path d="M31334 17972
L28346 17972
" />
<path d="M31333 17956
L28347 17956
" />
<path d="M31332 17940
L30226 17940
" />
<path d="M29454 17940
L28348 17940
" />
<path d="M31331 17925
L30226 17925
" />
<path d="M29454 17925
L28349 17925
" />
<path d="M31330 17909
L30226 17909
" />
<path d="M29454 17909
L28350 17909
" />
<path d="M31328 17893
L30226 17893
" />
<path d="M29454 17893
L28352 17893
" />
<path d="M31326 17877
L30226 17877
" />
<path d="M29454 17877
L28354 17877
" />
<path d="M31324 17862
L30226 17862
" />
<path d="M29454 17862
L28356 17862
" />
<path d="M31322 17846
L30226 17846
" />
<path d="M29454 17846
L28358 17846
" />
<path d="M31320 17830
L30226 17830
" />
<path d="M29454 17830
L28360 17830
" />
<path d="M31318 17814
L30226 17814
" />
<path d="M29454 17814
L28362 17814
" />
<path d="M31315 17799
L30226 17799
" />
<path d="M29454 17799
L28365 17799
" />
<path d="M31312 17783
L30226 17783
" />
<path d="M29454 17783
L28368 17783
" />
<path d="M31309 17767
L30226 17767
" />
<path d="M29454 17767
L28371 17767
" />
<path d="M31307 17751
L30226 17751
" />
<path d="M29454 17751
L28373 17751
" />
<path d="M31303 17735
L30226 17735
" />
<path d="M29454 17735
L28377 17735
" />
<path d="M31299 17720
L30226 17720
" />
<path d="M29454 17720
L28381 17720
" />
<path d="M31296 17704
L30226 17704
" />
<path d="M29454 17704
L28384 17704
" />
<path d="M31292 17688
L30226 17688
" />
<path d="M29454 17688
L28388 17688
" />
<path d="M31288 17672
L30226 17672
" />
<path d="M29454 17672
L28392 17672
" />
<path d="M31284 17657
L30226 17657
" />
<path d="M29454 17657
L28396 17657
" />
<path d="M31280 17641
L30226 17641
" />
<path d="M29454 17641
L28400 17641
" />
<path d="M31275 17625
L30226 17625
" />
<path d="M29454 17625
L28405 17625
" />
<path d="M31271 17609
L30226 17609
" />
<path d="M29454 17609
L28409 17609
" />
<path d="M31266 17594
L30226 17594
" />
<path d="M29454 17594
L28414 17594
" />
<path d="M31260 17578
L30226 17578
" />
<path d="M29454 17578
L28419 17578
" />
<path d="M31255 17562
L30226 17562
" />
<path d="M29454 17562
L28425 17562
" />
<path d="M31250 17546
L30226 17546
" />
<path d="M29454 17546
L28430 17546
" />
<path d="M31244 17531
L30226 17531
" />
<path d="M29454 17531
L28436 17531
" />
<path d="M31238 17515
L30226 17515
" />
<path d="M29454 17515
L28442 17515
" />
<path d="M31232 17499
L30226 17499
" />
<path d="M29454 17499
L28448 17499
" />
<path d="M31226 17483
L30226 17483
" />
<path d="M29454 17483
L28454 17483
" />
<path d="M31219 17468
L30226 17468
" />
<path d="M29454 17468
L28460 17468
" />
<path d="M31213 17452
L30226 17452
" />
<path d="M29454 17452
L28467 17452
" />
<path d="M31206 17436
L30226 17436
" />
<path d="M29454 17436
L28474 17436
" />
<path d="M31199 17420
L30226 17420
" />
<path d="M29454 17420
L28481 17420
" />
<path d="M31192 17405
L30226 17405
" />
<path d="M29454 17405
L28488 17405
" />
<path d="M31184 17389
L30226 17389
" />
<path d="M29454 17389
L28496 17389
" />
<path d="M31176 17373
L30226 17373
" />
<path d="M29454 17373
L28504 17373
" />
<path d="M31168 17357
L30226 17357
" />
<path d="M29454 17357
L28512 17357
" />
<path d="M31160 17342
L30226 17342
" />
<path d="M29454 17342
L28520 17342
" />
<path d="M31151 17326
L30226 17326
" />
<path d="M29454 17326
L28529 17326
" />
<path d="M31143 17310
L30226 17310
" />
<path d="M29454 17310
L28537 17310
" />
<path d="M31134 17294
L30226 17294
" />
<path d="M29454 17294
L28546 17294
" />
<path d="M31125 17279
L30226 17279
" />
<path d="M29454 17279
L28555 17279
" />
<path d="M31115 17263
L30226 17263
" />
<path d="M29454 17263
L28565 17263
" />
<path d="M31105 17247
L30226 17247
" />
<path d="M29454 17247
L28575 17247
" />
<path d="M31095 17231
L30226 17231
" />
<path d="M29454 17231
L28585 17231
" />
<path d="M31085 17216
L30226 17216
" />
<path d="M29454 17216
L28595 17216
" />
<path d="M31074 17200
L30226 17200
" />
<path d="M29454 17200
L28606 17200
" />
<path d="M31064 17184
L30226 17184
" />
<path d="M29454 17184
L28616 17184
" />
<path d="M31052 17168
L28628 17168
" />
<path d="M31041 17153
L28639 17153
" />
<path d="M31029 17137
L28651 17137
" />
<path d="M31017 17121
L28663 17121
" />
<path d="M31005 17105
L28675 17105
" />
<path d="M30992 17090
L28688 17090
" />
<path d="M30979 17074
L28701 17074
" />
<path d="M30965 17058
L28715 17058
" />
<path d="M30951 17042
L28729 17042
" />
<path d="M30937 17027
L28743 17027
" />
<path d="M30922 17011
L28758 17011
" />
<path d="M30907 16995
L28773 16995
" />
<path d="M30892 16979
L28788 16979
" />
<path d="M30875 16964
L28805 16964
" />
<path d="M30859 16948
L28821 16948
" />
<path d="M30842 16932
L28838 16932
" />
<path d="M30824 16916
L28856 16916
" />
<path d="M30806 16901
L28874 16901
" />
<path d="M30788 16885
L28892 16885
" />
<path d="M30768 16869
L28912 16869
" />
<path d="M30748 16853
L28932 16853
" />
<path d="M30727 16838
L28953 16838
" />
<path d="M30706 16822
L28974 16822
" />
<path d="M30683 16806
L28997 16806
" />
<path d="M30660 16790
L29020 16790
" />
<path d="M30636 16775
L29044 16775
" />
<path d="M30610 16759
L29069 16759
" />
<path d="M30584 16743
L29096 16743
" />
<path d="M30557 16727
L29123 16727
" />
<path d="M30527 16712
L29153 16712
" />
<path d="M30496 16696
L29184 16696
" />
<path d="M30464 16680
L29216 16680
" />
<path d="M30429 16664
L29251 16664
" />
<path d="M30391 16649
L29289 16649
" />
<path d="M30351 16633
L29329 16633
" />
<path d="M30306 16617
L29374 16617
" />
<path d="M30256 16601
L29424 16601
" />
<path d="M30199 16586
L29481 16586
" />
<path d="M30131 16570
L29549 16570
" />
<path d="M30042 16554
L29638 16554
" />
<path d="M29840 19409
L29840 18937
" />
<path d="M30096 19173
L29584 19173
" />
<path d="M18864 15066
L17816 15066
" />
<path d="M18864 15043
L18864 15066
" />
<path d="M17816 15043
L17816 15066
" />
<path d="M18864 15043
L17816 15043
" />
<path d="M18864 14543
L18864 14019
" />
<path d="M18864 14019
L18340 14019
" />
<path d="M11364 20816
L10316 20816
" />
<path d="M11364 20793
L11364 20816
" />
<path d="M10316 20793
L10316 20816
" />
<path d="M11364 20793
L10316 20793
" />
<path d="M11364 20293
L11364 19769
" />
<path d="M11364 19769
L10840 19769
" />
<path d="M12456.6 4537.47 A454.724 454.724 0.0 0 0 12464.5 5446.85 " />
<path d="M12456.3 5446.44 A454.387 454.387 0.0 0 0 12914.5 4929.13 " />
<path d="M11917 5543
L11917 3547
" />
<path d="M11917 3547
L12307 3547
" />
<path d="M12307 3547
L12307 3696
" />
<path d="M12307 3696
L15373 3696
" />
<path d="M15373 3696
L15373 3547
" />
<path d="M15373 3547
L15763 3547
" />
<path d="M15763 3547
L15763 5543
" />
<path d="M15763 5543
L11917 5543
" />
<path d="M12119 4703
L12753 5337
" />
<path d="M12174 4647
L12447 4920
" />
<path d="M12463 4936
L12809 5281
" />
<path d="M11822 4850
L11822 5637
" />
<path d="M11822 5637
L12610 5637
" />
</g>
<g style="fill:#840000; fill-opacity:0.0; 
stroke:#840000; stroke-width:47.2441; stroke-opacity:1; 
stroke-linecap:round; stroke-linejoin:round;">
</g>
<g style="fill:#840000; fill-opacity:0.0; 
stroke:#840000; stroke-width:0; stroke-opacity:1; 
stroke-linecap:round; stroke-linejoin:round;">
</g>
<g style="fill:#840000; fill-opacity:1.0; 
stroke:#840000; stroke-width:0; stroke-opacity:1; 
stroke-linecap:round; stroke-linejoin:round;">
<polyline style="fill-rule:evenodd;"
points="23090,21293
23090,20293
22090,20293
22090,21293
23090,21293
" /> 
<circle cx="20590.5" cy="20793.3" r="500" /> 
</g>
<g style="fill:#840000; fill-opacity:1.0; 
stroke:#840000; stroke-width:39.3701; stroke-opacity:1; 
stroke-linecap:round; stroke-linejoin:round;">
</g>
<g style="fill:#840000; fill-opacity:1.0; 
stroke:#840000; stroke-width:0; stroke-opacity:1; 
stroke-linecap:round; stroke-linejoin:round;">
<polyline style="fill-rule:evenodd;"
points="9090,7293
8090,7293
8090,8293
9090,8293
9090,7293
" /> 
<circle cx="8590.47" cy="9793.31" r="500" /> 
</g>
<g style="fill:#840000; fill-opacity:1.0; 
stroke:#840000; stroke-width:39.3701; stroke-opacity:1; 
stroke-linecap:round; stroke-linejoin:round;">
</g>
<g style="fill:#840000; fill-opacity:1.0; 
stroke:#840000; stroke-width:0; stroke-opacity:1; 
stroke-linecap:round; stroke-linejoin:round;">
<polyline style="fill-rule:evenodd;"
points="25590,20293
25590,21293
26590,21293
26590,20293
25590,20293
" /> 
<circle cx="28090.5" cy="20793.3" r="500" /> 
</g>
<g style="fill:#840000; fill-opacity:1.0; 
stroke:#840000; stroke-width:39.3701; stroke-opacity:1; 
stroke-linecap:round; stroke-linejoin:round;">
</g> 
</svg>
