<?xml version="1.0" standalone="no"?>
 <!DOCTYPE svg PUBLIC "-//W3C//DTD SVG 1.1//EN" 
 "http://www.w3.org/Graphics/SVG/1.1/DTD/svg11.dtd"> 
<svg xmlns="http://www.w3.org/2000/svg" version="1.1" 
    width="8.92048cm" height="6.7564cm" viewBox="0 0 35120 26600 ">
<title>SVG Picture created as temp_reg-F.CrtYd.svg date 2017/10/27 07:26:09 </title>
  <desc>Picture generated by PCBNEW </desc>
<g style="fill:#000000; fill-opacity:1;stroke:#000000; stroke-opacity:1;
stroke-linecap:round; stroke-linejoin:round; "
 transform="translate(0 0) scale(1 1)">
</g>
<g style="fill:#C2C200; fill-opacity:0.0; 
stroke:#C2C200; stroke-width:-0.000393701; stroke-opacity:1; 
stroke-linecap:round; stroke-linejoin:round;">
</g>
<g style="fill:#C2C200; fill-opacity:0.0; 
stroke:#C2C200; stroke-width:59.0551; stroke-opacity:1; 
stroke-linecap:round; stroke-linejoin:round;">
<path d="M6590 43
L6590 22543
" />
<path d="M35090 43
L6590 43
" />
<path d="M35090 22543
L35090 43
" />
<path d="M6590 22543
L35090 22543
" />
</g>
<g style="fill:#848484; fill-opacity:0.0; 
stroke:#848484; stroke-width:59.0551; stroke-opacity:1; 
stroke-linecap:round; stroke-linejoin:round;">
</g>
<g style="fill:#848484; fill-opacity:0.0; 
stroke:#848484; stroke-width:19.685; stroke-opacity:1; 
stroke-linecap:round; stroke-linejoin:round;">
<path d="M14864 11840
L14864 9742
" />
<path d="M14864 9742
L18816 9742
" />
<path d="M18816 9742
L18816 11840
" />
<path d="M18816 11840
L14864 11840
" />
<path d="M14690 7834
L13381 9142
" />
<path d="M13381 9142
L12073 7834
" />
<path d="M12073 7834
L13381 6526
" />
<path d="M13381 6526
L14690 7834
" />
<path d="M12460 10468
L12460 8618
" />
<path d="M12460 8618
L14310 8618
" />
<path d="M14310 8618
L14310 10468
" />
<path d="M14310 10468
L12460 10468
" />
<path d="M12677 11496
L12677 10590
" />
<path d="M12677 10590
L14488 10590
" />
<path d="M14488 10590
L14488 11496
" />
<path d="M14488 11496
L12677 11496
" />
<path d="M9753 14590
L9753 15496
" />
<path d="M9753 15496
L7942 15496
" />
<path d="M7942 15496
L7942 14590
" />
<path d="M7942 14590
L9753 14590
" />
<path d="M11043 19206
L10137 19206
" />
<path d="M10137 19206
L10137 17395
" />
<path d="M10137 17395
L11043 17395
" />
<path d="M11043 17395
L11043 19206
" />
<path d="M10462 11429
L10462 14657
" />
<path d="M10462 14657
L7234 14657
" />
<path d="M7234 14657
L7234 11429
" />
<path d="M7234 11429
L10462 11429
" />
<path d="M24793 4757
L24793 6529
" />
<path d="M24793 6529
L22883 6529
" />
<path d="M22883 6529
L22883 4757
" />
<path d="M22883 4757
L24793 4757
" />
<path d="M12442 3618
L15238 3618
" />
<path d="M12442 3618
L12442 1751
" />
<path d="M15238 1751
L15238 3618
" />
<path d="M15238 1751
L12442 1751
" />
<path d="M24799 1834
L24799 3251
" />
<path d="M24799 3251
L23381 3251
" />
<path d="M23381 3251
L23381 1834
" />
<path d="M23381 1834
L24799 1834
" />
<path d="M25799 1834
L25799 3251
" />
<path d="M25799 3251
L24381 3251
" />
<path d="M24381 3251
L24381 1834
" />
<path d="M24381 1834
L25799 1834
" />
<path d="M29710 379
L30970 379
" />
<path d="M30970 379
L30970 5222
" />
<path d="M30970 5222
L29710 5222
" />
<path d="M29710 5222
L29710 379
" />
<path d="M19253 5663
L19253 6923
" />
<path d="M19253 6923
L14411 6923
" />
<path d="M14411 6923
L14411 5663
" />
<path d="M14411 5663
L19253 5663
" />
<path d="M29753 3913
L29753 5173
" />
<path d="M29753 5173
L24911 5173
" />
<path d="M24911 5173
L24911 3913
" />
<path d="M24911 3913
L29753 3913
" />
<path d="M31710 13129
L32970 13129
" />
<path d="M32970 13129
L32970 17972
" />
<path d="M32970 17972
L31710 17972
" />
<path d="M31710 17972
L31710 13129
" />
<path d="M14427 9673
L14427 8413
" />
<path d="M14427 8413
L19269 8413
" />
<path d="M19269 8413
L19269 9673
" />
<path d="M19269 9673
L14427 9673
" />
<path d="M14177 17173
L14177 15913
" />
<path d="M14177 15913
L19019 15913
" />
<path d="M19019 15913
L19019 17173
" />
<path d="M19019 17173
L14177 17173
" />
<path d="M19003 17163
L19003 18423
" />
<path d="M19003 18423
L14161 18423
" />
<path d="M14161 18423
L14161 17163
" />
<path d="M14161 17163
L19003 17163
" />
<path d="M11427 19673
L11427 18413
" />
<path d="M11427 18413
L16269 18413
" />
<path d="M16269 18413
L16269 19673
" />
<path d="M16269 19673
L11427 19673
" />
<path d="M16253 19663
L16253 20923
" />
<path d="M16253 20923
L11411 20923
" />
<path d="M11411 20923
L11411 19663
" />
<path d="M11411 19663
L16253 19663
" />
<path d="M20566 1496
L20566 3594
" />
<path d="M20566 3594
L16614 3594
" />
<path d="M16614 3594
L16614 1496
" />
<path d="M16614 1496
L20566 1496
" />
<path d="M34210 12610
L30431 12610
" />
<path d="M30431 12610
L30431 8476
" />
<path d="M30431 8476
L34210 8476
" />
<path d="M34210 8476
L34210 12610
" />
<path d="M29165 3440
L29165 645
" />
<path d="M29165 3440
L27299 3440
" />
<path d="M27299 645
L29165 645
" />
<path d="M27299 645
L27299 3440
" />
<path d="M12519 15903
L12519 11690
" />
<path d="M12519 11690
L16673 11690
" />
<path d="M16673 11690
L16673 15903
" />
<path d="M16673 15903
L12519 15903
" />
<path d="M23299 3751
L20877 3751
" />
<path d="M20877 3751
L20877 1330
" />
<path d="M20877 1330
L23299 1330
" />
<path d="M23299 1330
L23299 3751
" />
<path d="M28408 18452
L25613 18452
" />
<path d="M25613 18452
L25613 7310
" />
<path d="M25613 7310
L28408 7310
" />
<path d="M28408 7310
L28408 18452
" />
<path d="M25408 18452
L22613 18452
" />
<path d="M22613 18452
L22613 7310
" />
<path d="M22613 7310
L25408 7310
" />
<path d="M25408 7310
L25408 18452
" />
<path d="M22408 18452
L19613 18452
" />
<path d="M19613 18452
L19613 7310
" />
<path d="M19613 7310
L22408 7310
" />
<path d="M22408 7310
L22408 18452
" />
<path d="M11549 7584
L11549 10005
" />
<path d="M11549 10005
L10131 10005
" />
<path d="M10131 10005
L10131 7584
" />
<path d="M10131 7584
L11549 7584
" />
<path d="M26799 1834
L26799 3251
" />
<path d="M26799 3251
L25381 3251
" />
<path d="M25381 3251
L25381 1834
" />
<path d="M25381 1834
L26799 1834
" />
<path d="M11177 1923
L11177 663
" />
<path d="M11177 663
L16019 663
" />
<path d="M16019 663
L16019 1923
" />
<path d="M16019 1923
L11177 1923
" />
<path d="M31454 19665
L28226 19665
" />
<path d="M28226 19665
L28226 16437
" />
<path d="M28226 16437
L31454 16437
" />
<path d="M31454 16437
L31454 19665
" />
<path d="M19049 13834
L19049 15251
" />
<path d="M19049 15251
L17631 15251
" />
<path d="M17631 15251
L17631 13834
" />
<path d="M17631 13834
L19049 13834
" />
<path d="M11549 19584
L11549 21001
" />
<path d="M11549 21001
L10131 21001
" />
<path d="M10131 21001
L10131 19584
" />
<path d="M10131 19584
L11549 19584
" />
<path d="M15816 3496
L15816 5594
" />
<path d="M15816 5594
L11864 5594
" />
<path d="M11864 5594
L11864 3496
" />
<path d="M11864 3496
L15816 3496
" />
</g> 
</svg>
