<?xml version="1.0" standalone="no"?>
 <!DOCTYPE svg PUBLIC "-//W3C//DTD SVG 1.1//EN" 
 "http://www.w3.org/Graphics/SVG/1.1/DTD/svg11.dtd"> 
<svg xmlns="http://www.w3.org/2000/svg" version="1.1" 
    width="8.92048cm" height="6.7564cm" viewBox="0 0 35120 26600 ">
<title>SVG Picture created as temp_reg-F.Fab.svg date 2017/10/27 07:26:09 </title>
  <desc>Picture generated by PCBNEW </desc>
<g style="fill:#000000; fill-opacity:1;stroke:#000000; stroke-opacity:1;
stroke-linecap:round; stroke-linejoin:round; "
 transform="translate(0 0) scale(1 1)">
</g>
<g style="fill:#C2C200; fill-opacity:0.0; 
stroke:#C2C200; stroke-width:-0.000393701; stroke-opacity:1; 
stroke-linecap:round; stroke-linejoin:round;">
</g>
<g style="fill:#C2C200; fill-opacity:0.0; 
stroke:#C2C200; stroke-width:59.0551; stroke-opacity:1; 
stroke-linecap:round; stroke-linejoin:round;">
<path d="M6590 43
L6590 22543
" />
<path d="M35090 43
L6590 43
" />
<path d="M35090 22543
L35090 43
" />
<path d="M6590 22543
L35090 22543
" />
<path d="M17299 12416
L17299 12022
L17149 12022
L17112 12041
L17093 12060
L17074 12097
L17074 12153
L17093 12191
L17112 12210
L17149 12228
L17299 12228
" />
<path d="M16831 12022
L16756 12022
L16718 12041
L16681 12078
L16662 12153
L16662 12285
L16681 12360
L16718 12397
L16756 12416
L16831 12416
L16868 12397
L16906 12360
L16924 12285
L16924 12153
L16906 12078
L16868 12041
L16831 12022
" />
<path d="M16549 12022
L16324 12022
" />
<path d="M16437 12416
L16437 12022
" />
<path d="M17074 10971
L17206 10783
" />
<path d="M17299 10971
L17299 10577
L17149 10577
L17112 10596
L17093 10615
L17074 10652
L17074 10708
L17093 10746
L17112 10765
L17149 10783
L17299 10783
" />
<path d="M16962 10577
L16831 10971
L16699 10577
" />
<path d="M16587 10615
L16568 10596
L16531 10577
L16437 10577
L16399 10596
L16381 10615
L16362 10652
L16362 10690
L16381 10746
L16606 10971
L16362 10971
" />
<path d="M13311 9667
L13311 9693
L13338 9746
L13364 9773
L13418 9799
L13471 9799
L13510 9786
L13577 9746
L13616 9707
L13656 9640
L13669 9601
L13669 9548
L13643 9495
L13616 9468
L13563 9442
L13537 9442
" />
<path d="M13166 9574
L13444 9296
L13338 9190
L13298 9176
L13272 9176
L13232 9190
L13192 9229
L13179 9269
L13179 9296
L13192 9335
L13298 9442
" />
<path d="M12741 9150
L12900 9309
" />
<path d="M12821 9229
L13099 8951
L13086 9017
L13086 9070
L13099 9110
" />
<path d="M12662 9123
L12450 8911
" />
<path d="M12437 8818
L12383 8792
L12317 8726
L12304 8686
L12304 8659
L12317 8620
L12344 8593
L12383 8580
L12410 8580
L12450 8593
L12516 8633
L12556 8646
L12582 8646
L12622 8633
L12649 8606
L12662 8567
L12662 8540
L12649 8500
L12582 8434
L12529 8407
" />
<path d="M12145 8553
L12330 8368
" />
<path d="M12304 8394
L12304 8368
L12291 8328
L12251 8288
L12211 8275
L12171 8288
L12026 8434
" />
<path d="M12171 8288
L12185 8248
L12171 8209
L12132 8169
L12092 8156
L12052 8169
L11906 8315
" />
<path d="M11654 8063
L11800 7917
L11840 7904
L11880 7917
L11933 7970
L11946 8010
" />
<path d="M11668 8050
L11681 8089
L11747 8156
L11787 8169
L11827 8156
L11853 8129
L11866 8089
L11853 8050
L11787 7983
L11774 7944
" />
<path d="M11482 7890
L11522 7904
L11562 7890
L11800 7652
" />
<path d="M11336 7745
L11376 7758
L11416 7745
L11654 7506
" />
<path d="M14632 8479
L14651 8497
L14707 8516
L14744 8516
L14801 8497
L14838 8460
L14857 8422
L14876 8347
L14876 8291
L14857 8216
L14838 8179
L14801 8141
L14744 8122
L14707 8122
L14651 8141
L14632 8160
" />
<path d="M14463 8516
L14463 8122
L14313 8122
L14276 8141
L14257 8160
L14238 8197
L14238 8254
L14257 8291
L14276 8310
L14313 8329
L14463 8329
" />
<path d="M13863 8516
L14088 8516
" />
<path d="M13976 8516
L13976 8122
L14013 8179
L14051 8216
L14088 8235
" />
<path d="M13788 8554
L13488 8554
" />
<path d="M13413 8497
L13357 8516
L13263 8516
L13226 8497
L13207 8479
L13188 8441
L13188 8404
L13207 8366
L13226 8347
L13263 8329
L13338 8310
L13376 8291
L13395 8272
L13413 8235
L13413 8197
L13395 8160
L13376 8141
L13338 8122
L13245 8122
L13188 8141
" />
<path d="M13020 8516
L13020 8254
" />
<path d="M13020 8291
L13001 8272
L12963 8254
L12907 8254
L12870 8272
L12851 8310
L12851 8516
" />
<path d="M12851 8310
L12832 8272
L12795 8254
L12738 8254
L12701 8272
L12682 8310
L12682 8516
" />
<path d="M12326 8516
L12326 8310
L12345 8272
L12382 8254
L12457 8254
L12495 8272
" />
<path d="M12326 8497
L12364 8516
L12457 8516
L12495 8497
L12513 8460
L12513 8422
L12495 8385
L12457 8366
L12364 8366
L12326 8347
" />
<path d="M12082 8516
L12120 8497
L12139 8460
L12139 8122
" />
<path d="M11876 8516
L11914 8497
L11932 8460
L11932 8122
" />
<path d="M14444 10451
L14463 10470
L14519 10489
L14557 10489
L14613 10470
L14651 10432
L14669 10395
L14688 10320
L14688 10264
L14669 10189
L14651 10151
L14613 10114
L14557 10095
L14519 10095
L14463 10114
L14444 10132
" />
<path d="M14369 10526
L14070 10526
" />
<path d="M13995 10470
L13938 10489
L13845 10489
L13807 10470
L13788 10451
L13770 10414
L13770 10376
L13788 10339
L13807 10320
L13845 10301
L13920 10282
L13957 10264
L13976 10245
L13995 10207
L13995 10170
L13976 10132
L13957 10114
L13920 10095
L13826 10095
L13770 10114
" />
<path d="M13601 10489
L13601 10226
" />
<path d="M13601 10264
L13582 10245
L13545 10226
L13488 10226
L13451 10245
L13432 10282
L13432 10489
" />
<path d="M13432 10282
L13413 10245
L13376 10226
L13320 10226
L13282 10245
L13263 10282
L13263 10489
" />
<path d="M12907 10489
L12907 10282
L12926 10245
L12963 10226
L13038 10226
L13076 10245
" />
<path d="M12907 10470
L12945 10489
L13038 10489
L13076 10470
L13095 10432
L13095 10395
L13076 10357
L13038 10339
L12945 10339
L12907 10320
" />
<path d="M12663 10489
L12701 10470
L12720 10432
L12720 10095
" />
<path d="M12457 10489
L12495 10470
L12513 10432
L12513 10095
" />
<path d="M9710 15916
L9729 15934
L9785 15953
L9823 15953
L9879 15934
L9916 15897
L9935 15859
L9954 15784
L9954 15728
L9935 15653
L9916 15616
L9879 15578
L9823 15559
L9785 15559
L9729 15578
L9710 15597
" />
<path d="M9635 15991
L9335 15991
" />
<path d="M9260 15934
L9204 15953
L9110 15953
L9073 15934
L9054 15916
L9035 15878
L9035 15841
L9054 15803
L9073 15784
L9110 15766
L9185 15747
L9223 15728
L9242 15709
L9260 15672
L9260 15634
L9242 15597
L9223 15578
L9185 15559
L9092 15559
L9035 15578
" />
<path d="M8867 15953
L8867 15691
" />
<path d="M8867 15728
L8848 15709
L8810 15691
L8754 15691
L8717 15709
L8698 15747
L8698 15953
" />
<path d="M8698 15747
L8679 15709
L8642 15691
L8585 15691
L8548 15709
L8529 15747
L8529 15953
" />
<path d="M8173 15953
L8173 15747
L8192 15709
L8229 15691
L8304 15691
L8342 15709
" />
<path d="M8173 15934
L8210 15953
L8304 15953
L8342 15934
L8360 15897
L8360 15859
L8342 15822
L8304 15803
L8210 15803
L8173 15784
" />
<path d="M7929 15953
L7967 15934
L7985 15897
L7985 15559
" />
<path d="M7723 15953
L7760 15934
L7779 15897
L7779 15559
" />
<path d="M9717 19163
L9698 19182
L9680 19238
L9680 19276
L9698 19332
L9736 19369
L9773 19388
L9848 19407
L9905 19407
L9980 19388
L10017 19369
L10055 19332
L10073 19276
L10073 19238
L10055 19182
L10036 19163
" />
<path d="M9642 19088
L9642 18788
" />
<path d="M9698 18713
L9680 18657
L9680 18563
L9698 18526
L9717 18507
L9755 18488
L9792 18488
L9830 18507
L9848 18526
L9867 18563
L9886 18638
L9905 18676
L9923 18694
L9961 18713
L9998 18713
L10036 18694
L10055 18676
L10073 18638
L10073 18544
L10055 18488
" />
<path d="M9680 18319
L9942 18319
" />
<path d="M9905 18319
L9923 18301
L9942 18263
L9942 18207
L9923 18169
L9886 18151
L9680 18151
" />
<path d="M9886 18151
L9923 18132
L9942 18094
L9942 18038
L9923 18001
L9886 17982
L9680 17982
" />
<path d="M9680 17626
L9886 17626
L9923 17645
L9942 17682
L9942 17757
L9923 17794
" />
<path d="M9698 17626
L9680 17663
L9680 17757
L9698 17794
L9736 17813
L9773 17813
L9811 17794
L9830 17757
L9830 17663
L9848 17626
" />
<path d="M9680 17382
L9698 17420
L9736 17438
L10073 17438
" />
<path d="M9680 17176
L9698 17213
L9736 17232
L10073 17232
" />
<path d="M8923 15077
L8942 15096
L8998 15115
L9035 15115
L9092 15096
L9129 15058
L9148 15021
L9167 14946
L9167 14890
L9148 14815
L9129 14777
L9092 14740
L9035 14721
L8998 14721
L8942 14740
L8923 14758
" />
<path d="M8754 15115
L8754 14721
L8604 14721
L8567 14740
L8548 14758
L8529 14796
L8529 14852
L8548 14890
L8567 14908
L8604 14927
L8754 14927
" />
<path d="M24093 6986
L24281 6986
L24281 6593
" />
<path d="M23962 6780
L23831 6780
" />
<path d="M23774 6986
L23962 6986
L23962 6593
L23774 6593
" />
<path d="M23606 6986
L23606 6593
L23512 6593
L23456 6611
L23418 6649
L23399 6686
L23381 6761
L23381 6818
L23399 6893
L23418 6930
L23456 6968
L23512 6986
L23606 6986
" />
<path d="M14674 1229
L14449 1229
" />
<path d="M14562 1622
L14562 1229
" />
<path d="M14131 1622
L14318 1622
L14318 1229
" />
<path d="M13831 1360
L13831 1622
" />
<path d="M13924 1210
L14018 1491
L13774 1491
" />
<path d="M13662 1229
L13418 1229
L13549 1379
L13493 1379
L13456 1398
L13437 1416
L13418 1454
L13418 1547
L13437 1585
L13456 1604
L13493 1622
L13606 1622
L13643 1604
L13662 1585
" />
<path d="M13043 1622
L13268 1622
" />
<path d="M13156 1622
L13156 1229
L13193 1285
L13231 1323
L13268 1341
" />
<path d="M14131 4122
L14131 3729
L14037 3729
L13981 3748
L13943 3785
L13924 3823
L13906 3898
L13906 3954
L13924 4029
L13943 4066
L13981 4104
L14037 4122
L14131 4122
" />
<path d="M13756 3766
L13737 3748
L13699 3729
L13606 3729
L13568 3748
L13549 3766
L13531 3804
L13531 3841
L13549 3898
L13774 4122
L13531 4122
" />
<path d="M25674 3601
L25693 3619
L25749 3638
L25787 3638
L25843 3619
L25880 3582
L25899 3544
L25918 3470
L25918 3413
L25899 3338
L25880 3301
L25843 3263
L25787 3245
L25749 3245
L25693 3263
L25674 3282
" />
<path d="M25430 3245
L25355 3245
L25318 3263
L25280 3301
L25262 3376
L25262 3507
L25280 3582
L25318 3619
L25355 3638
L25430 3638
L25468 3619
L25505 3582
L25524 3507
L25524 3376
L25505 3301
L25468 3263
L25430 3245
" />
<path d="M25093 3638
L25093 3245
L24868 3638
L24868 3245
" />
<path d="M24681 3638
L24681 3245
L24456 3638
L24456 3245
" />
<path d="M24362 3676
L24062 3676
" />
<path d="M23893 3245
L23856 3245
L23818 3263
L23799 3282
L23781 3320
L23762 3395
L23762 3488
L23781 3563
L23799 3601
L23818 3619
L23856 3638
L23893 3638
L23931 3619
L23949 3601
L23968 3563
L23987 3488
L23987 3395
L23968 3320
L23949 3282
L23931 3263
L23893 3245
" />
<path d="M23387 3638
L23612 3638
" />
<path d="M23499 3638
L23499 3245
L23537 3301
L23574 3338
L23612 3357
" />
<path d="M23256 3245
L22993 3638
" />
<path d="M22993 3245
L23256 3638
" />
<path d="M22768 3245
L22731 3245
L22693 3263
L22675 3282
L22656 3320
L22637 3395
L22637 3488
L22656 3563
L22675 3601
L22693 3619
L22731 3638
L22768 3638
L22806 3619
L22825 3601
L22843 3563
L22862 3488
L22862 3395
L22843 3320
L22825 3282
L22806 3263
L22768 3245
" />
<path d="M22262 3638
L22487 3638
" />
<path d="M22375 3638
L22375 3245
L22412 3301
L22450 3338
L22487 3357
" />
<path d="M23912 2833
L24306 2833
L24306 2683
L24287 2646
L24268 2627
L24231 2608
L24174 2608
L24137 2627
L24118 2646
L24099 2683
L24099 2833
" />
<path d="M24306 2477
L24306 2233
L24156 2365
L24156 2308
L24137 2271
L24118 2252
L24081 2233
L23987 2233
L23949 2252
L23931 2271
L23912 2308
L23912 2421
L23931 2458
L23949 2477
" />
<path d="M26674 3601
L26693 3619
L26749 3638
L26787 3638
L26843 3619
L26880 3582
L26899 3544
L26918 3470
L26918 3413
L26899 3338
L26880 3301
L26843 3263
L26787 3245
L26749 3245
L26693 3263
L26674 3282
" />
<path d="M26430 3245
L26355 3245
L26318 3263
L26280 3301
L26262 3376
L26262 3507
L26280 3582
L26318 3619
L26355 3638
L26430 3638
L26468 3619
L26505 3582
L26524 3507
L26524 3376
L26505 3301
L26468 3263
L26430 3245
" />
<path d="M26093 3638
L26093 3245
L25868 3638
L25868 3245
" />
<path d="M25681 3638
L25681 3245
L25456 3638
L25456 3245
" />
<path d="M25362 3676
L25062 3676
" />
<path d="M24893 3245
L24856 3245
L24818 3263
L24799 3282
L24781 3320
L24762 3395
L24762 3488
L24781 3563
L24799 3601
L24818 3619
L24856 3638
L24893 3638
L24931 3619
L24949 3601
L24968 3563
L24987 3488
L24987 3395
L24968 3320
L24949 3282
L24931 3263
L24893 3245
" />
<path d="M24387 3638
L24612 3638
" />
<path d="M24499 3638
L24499 3245
L24537 3301
L24574 3338
L24612 3357
" />
<path d="M24256 3245
L23993 3638
" />
<path d="M23993 3245
L24256 3638
" />
<path d="M23768 3245
L23731 3245
L23693 3263
L23675 3282
L23656 3320
L23637 3395
L23637 3488
L23656 3563
L23675 3601
L23693 3619
L23731 3638
L23768 3638
L23806 3619
L23825 3601
L23843 3563
L23862 3488
L23862 3395
L23843 3320
L23825 3282
L23806 3263
L23768 3245
" />
<path d="M23262 3638
L23487 3638
" />
<path d="M23375 3638
L23375 3245
L23412 3301
L23450 3338
L23487 3357
" />
<path d="M24912 2833
L25306 2833
L25306 2683
L25287 2646
L25268 2627
L25231 2608
L25174 2608
L25137 2627
L25118 2646
L25099 2683
L25099 2833
" />
<path d="M25306 2271
L25306 2346
L25287 2383
L25268 2402
L25212 2440
L25137 2458
L24987 2458
L24949 2440
L24931 2421
L24912 2383
L24912 2308
L24931 2271
L24949 2252
L24987 2233
L25081 2233
L25118 2252
L25137 2271
L25156 2308
L25156 2383
L25137 2421
L25118 2440
L25081 2458
" />
<path d="M31071 2671
L31259 2802
" />
<path d="M31071 2896
L31465 2896
L31465 2746
L31446 2708
L31428 2690
L31390 2671
L31334 2671
L31296 2690
L31278 2708
L31259 2746
L31259 2896
" />
<path d="M16718 7380
L16849 7193
" />
<path d="M16943 7380
L16943 6987
L16793 6987
L16756 7005
L16737 7024
L16718 7062
L16718 7118
L16737 7155
L16756 7174
L16793 7193
L16943 7193
" />
<path d="M27218 5630
L27349 5443
" />
<path d="M27443 5630
L27443 5237
L27293 5237
L27256 5255
L27237 5274
L27218 5312
L27218 5368
L27237 5405
L27256 5424
L27293 5443
L27443 5443
" />
<path d="M33071 16058
L33071 16283
" />
<path d="M33071 16171
L33465 16171
L33409 16208
L33371 16246
L33353 16283
" />
<path d="M33465 15702
L33465 15890
L33278 15908
L33296 15890
L33315 15852
L33315 15758
L33296 15721
L33278 15702
L33240 15683
L33146 15683
L33109 15702
L33090 15721
L33071 15758
L33071 15852
L33090 15890
L33109 15908
" />
<path d="M33109 15515
L33090 15496
L33071 15515
L33090 15533
L33109 15515
L33071 15515
" />
<path d="M33296 15271
L33315 15308
L33334 15327
L33371 15346
L33390 15346
L33428 15327
L33446 15308
L33465 15271
L33465 15196
L33446 15158
L33428 15140
L33390 15121
L33371 15121
L33334 15140
L33315 15158
L33296 15196
L33296 15271
L33278 15308
L33259 15327
L33221 15346
L33146 15346
L33109 15327
L33090 15308
L33071 15271
L33071 15196
L33090 15158
L33109 15140
L33146 15121
L33221 15121
L33259 15140
L33278 15158
L33296 15196
" />
<path d="M33071 14952
L33465 14952
" />
<path d="M33221 14915
L33071 14802
" />
<path d="M33334 14802
L33184 14952
" />
<path d="M16718 8311
L16849 8124
" />
<path d="M16943 8311
L16943 7918
L16793 7918
L16756 7937
L16737 7955
L16718 7993
L16718 8049
L16737 8086
L16756 8105
L16793 8124
L16943 8124
" />
<path d="M16468 15811
L16599 15624
" />
<path d="M16693 15811
L16693 15418
L16543 15418
L16506 15437
L16487 15455
L16468 15493
L16468 15549
L16487 15586
L16506 15605
L16543 15624
L16693 15624
" />
<path d="M16468 18880
L16599 18693
" />
<path d="M16693 18880
L16693 18487
L16543 18487
L16506 18505
L16487 18524
L16468 18562
L16468 18618
L16487 18655
L16506 18674
L16543 18693
L16693 18693
" />
<path d="M13718 18311
L13849 18124
" />
<path d="M13943 18311
L13943 17918
L13793 17918
L13756 17937
L13737 17955
L13718 17993
L13718 18049
L13737 18086
L13756 18105
L13793 18124
L13943 18124
" />
<path d="M13718 21380
L13849 21193
" />
<path d="M13943 21380
L13943 20987
L13793 20987
L13756 21005
L13737 21024
L13718 21062
L13718 21118
L13737 21155
L13756 21174
L13793 21193
L13943 21193
" />
<path d="M19049 1276
L19049 882
L18899 882
L18862 901
L18843 920
L18824 957
L18824 1014
L18843 1051
L18862 1070
L18899 1089
L19049 1089
" />
<path d="M18581 882
L18506 882
L18468 901
L18431 939
L18412 1014
L18412 1145
L18431 1220
L18468 1257
L18506 1276
L18581 1276
L18618 1257
L18656 1220
L18674 1145
L18674 1014
L18656 939
L18618 901
L18581 882
" />
<path d="M18299 882
L18074 882
" />
<path d="M18187 1276
L18187 882
" />
<path d="M18824 2721
L18956 2533
" />
<path d="M19049 2721
L19049 2327
L18899 2327
L18862 2346
L18843 2365
L18824 2402
L18824 2458
L18843 2496
L18862 2515
L18899 2533
L19049 2533
" />
<path d="M18712 2327
L18581 2721
L18449 2327
" />
<path d="M18112 2721
L18337 2721
" />
<path d="M18224 2721
L18224 2327
L18262 2383
L18299 2421
L18337 2440
" />
<path d="M30343 11508
L30343 11433
L30324 11396
L30287 11358
L30212 11340
L30081 11340
L30006 11358
L29968 11396
L29949 11433
L29949 11508
L29968 11546
L30006 11583
L30081 11602
L30212 11602
L30287 11583
L30324 11546
L30343 11508
" />
<path d="M29949 11171
L30343 11171
L30343 11021
L30324 10983
L30305 10965
L30268 10946
L30212 10946
L30174 10965
L30155 10983
L30137 11021
L30137 11171
" />
<path d="M30062 10796
L30062 10608
" />
<path d="M29949 10833
L30343 10702
L29949 10571
" />
<path d="M30343 10252
L30343 10440
L30155 10458
L30174 10440
L30193 10402
L30193 10308
L30174 10271
L30155 10252
L30118 10233
L30024 10233
L29987 10252
L29968 10271
L29949 10308
L29949 10402
L29968 10440
L29987 10458
" />
<path d="M30212 9896
L29949 9896
" />
<path d="M30362 9990
L30081 10083
L30081 9840
" />
<path d="M30343 9727
L30343 9465
L29949 9634
" />
<path d="M34768 10843
L34449 10843
L34412 10824
L34393 10805
L34374 10768
L34374 10693
L34393 10655
L34412 10637
L34449 10618
L34768 10618
" />
<path d="M34374 10224
L34374 10449
" />
<path d="M34374 10337
L34768 10337
L34712 10374
L34674 10412
L34656 10449
" />
<path d="M27020 2774
L27001 2718
L26982 2699
L26945 2680
L26888 2680
L26851 2699
L26832 2718
L26813 2755
L26813 2905
L27207 2905
L27207 2774
L27188 2736
L27170 2718
L27132 2699
L27095 2699
L27057 2718
L27038 2736
L27020 2774
L27020 2905
" />
<path d="M26851 2287
L26832 2305
L26813 2362
L26813 2399
L26832 2455
L26870 2493
L26907 2511
L26982 2530
L27038 2530
L27113 2511
L27151 2493
L27188 2455
L27207 2399
L27207 2362
L27188 2305
L27170 2287
" />
<path d="M27207 1930
L27207 2118
L27020 2137
L27038 2118
L27057 2080
L27057 1987
L27038 1949
L27020 1930
L26982 1912
L26888 1912
L26851 1930
L26832 1949
L26813 1987
L26813 2080
L26832 2118
L26851 2137
" />
<path d="M27076 1574
L26813 1574
" />
<path d="M27226 1668
L26945 1762
L26945 1518
" />
<path d="M27207 1405
L27207 1143
L26813 1312
" />
<path d="M29276 2080
L29295 2118
L29332 2155
L29388 2212
L29407 2249
L29407 2287
" />
<path d="M29313 2268
L29332 2305
L29370 2343
L29445 2362
L29576 2362
L29651 2343
L29688 2305
L29707 2268
L29707 2193
L29688 2155
L29651 2118
L29576 2099
L29445 2099
L29370 2118
L29332 2155
L29313 2193
L29313 2268
" />
<path d="M29313 1724
L29313 1949
" />
<path d="M29313 1837
L29707 1837
L29651 1874
L29613 1912
L29595 1949
" />
<path d="M15846 11554
L15846 11291
" />
<path d="M15846 11329
L15827 11310
L15790 11291
L15734 11291
L15696 11310
L15677 11347
L15677 11554
" />
<path d="M15677 11347
L15659 11310
L15621 11291
L15565 11291
L15527 11310
L15509 11347
L15509 11554
" />
<path d="M15152 11554
L15152 11347
L15171 11310
L15209 11291
L15284 11291
L15321 11310
" />
<path d="M15152 11535
L15190 11554
L15284 11554
L15321 11535
L15340 11497
L15340 11460
L15321 11422
L15284 11404
L15190 11404
L15152 11385
" />
<path d="M15002 11554
L14796 11291
" />
<path d="M15002 11291
L14796 11554
" />
<path d="M14477 11291
L14477 11554
" />
<path d="M14571 11141
L14665 11422
L14421 11422
" />
<path d="M14290 11197
L14271 11179
L14234 11160
L14140 11160
L14103 11179
L14084 11197
L14065 11235
L14065 11272
L14084 11329
L14309 11554
L14065 11554
" />
<path d="M13690 11554
L13915 11554
" />
<path d="M13803 11554
L13803 11160
L13840 11216
L13878 11254
L13915 11272
" />
<path d="M13446 11160
L13409 11160
L13371 11179
L13353 11197
L13334 11235
L13315 11310
L13315 11404
L13334 11479
L13353 11516
L13371 11535
L13409 11554
L13446 11554
L13484 11535
L13503 11516
L13521 11479
L13540 11404
L13540 11310
L13521 11235
L13503 11197
L13484 11179
L13446 11160
" />
<path d="M14890 13577
L14890 13896
L14871 13933
L14852 13952
L14815 13971
L14740 13971
L14702 13952
L14684 13933
L14665 13896
L14665 13577
" />
<path d="M14496 13615
L14477 13596
L14440 13577
L14346 13577
L14309 13596
L14290 13615
L14271 13652
L14271 13690
L14290 13746
L14515 13971
L14271 13971
" />
<path d="M10662 18646
L10662 18833
L11056 18833
" />
<path d="M10662 18515
L11056 18515
L10774 18383
L11056 18252
L10662 18252
" />
<path d="M11056 18102
L11056 17840
L10662 18008
" />
<path d="M10887 17633
L10906 17671
L10924 17690
L10962 17708
L10981 17708
L11018 17690
L11037 17671
L11056 17633
L11056 17558
L11037 17521
L11018 17502
L10981 17483
L10962 17483
L10924 17502
L10906 17521
L10887 17558
L10887 17633
L10868 17671
L10849 17690
L10812 17708
L10737 17708
L10699 17690
L10681 17671
L10662 17633
L10662 17558
L10681 17521
L10699 17502
L10737 17483
L10812 17483
L10849 17502
L10868 17521
L10887 17558
" />
<path d="M11056 17240
L11056 17202
L11037 17165
L11018 17146
L10981 17127
L10906 17109
L10812 17109
L10737 17127
L10699 17146
L10681 17165
L10662 17202
L10662 17240
L10681 17277
L10699 17296
L10737 17315
L10812 17333
L10906 17333
L10981 17315
L11018 17296
L11037 17277
L11056 17240
" />
<path d="M11056 16752
L11056 16940
L10868 16959
L10887 16940
L10906 16902
L10906 16809
L10887 16771
L10868 16752
L10831 16734
L10737 16734
L10699 16752
L10681 16771
L10662 16809
L10662 16902
L10681 16940
L10699 16959
" />
<path d="M20532 4127
L20513 4146
L20495 4202
L20495 4239
L20513 4296
L20551 4333
L20588 4352
L20663 4371
L20720 4371
L20795 4352
L20832 4333
L20869 4296
L20888 4239
L20888 4202
L20869 4146
L20851 4127
" />
<path d="M20888 3883
L20888 3808
L20869 3771
L20832 3733
L20757 3715
L20626 3715
L20551 3733
L20513 3771
L20495 3808
L20495 3883
L20513 3921
L20551 3958
L20626 3977
L20757 3977
L20832 3958
L20869 3921
L20888 3883
" />
<path d="M20495 3546
L20888 3546
L20495 3321
L20888 3321
" />
<path d="M20495 3133
L20888 3133
L20495 2908
L20888 2908
" />
<path d="M20457 2815
L20457 2515
" />
<path d="M20888 2346
L20888 2308
L20869 2271
L20851 2252
L20813 2233
L20738 2215
L20645 2215
L20570 2233
L20532 2252
L20513 2271
L20495 2308
L20495 2346
L20513 2383
L20532 2402
L20570 2421
L20645 2440
L20738 2440
L20813 2421
L20851 2402
L20869 2383
L20888 2346
" />
<path d="M20851 2065
L20869 2046
L20888 2008
L20888 1915
L20869 1877
L20851 1859
L20813 1840
L20776 1840
L20720 1859
L20495 2083
L20495 1840
" />
<path d="M20888 1709
L20495 1446
" />
<path d="M20888 1446
L20495 1709
" />
<path d="M20888 1221
L20888 1184
L20869 1146
L20851 1127
L20813 1109
L20738 1090
L20645 1090
L20570 1109
L20532 1127
L20513 1146
L20495 1184
L20495 1221
L20513 1259
L20532 1277
L20570 1296
L20645 1315
L20738 1315
L20813 1296
L20851 1277
L20869 1259
L20888 1221
" />
<path d="M20851 940
L20869 921
L20888 884
L20888 790
L20869 752
L20851 734
L20813 715
L20776 715
L20720 734
L20495 959
L20495 715
" />
<path d="M22381 2721
L22381 2327
L22231 2327
L22193 2346
L22174 2365
L22156 2402
L22156 2458
L22174 2496
L22193 2515
L22231 2533
L22381 2533
" />
<path d="M21799 2327
L21987 2327
L22006 2515
L21987 2496
L21949 2477
L21856 2477
L21818 2496
L21799 2515
L21781 2552
L21781 2646
L21799 2683
L21818 2702
L21856 2721
L21949 2721
L21987 2702
L22006 2683
" />
<path d="M25155 12759
L25343 12891
" />
<path d="M25155 12984
L25549 12984
L25549 12834
L25530 12797
L25511 12778
L25474 12759
L25418 12759
L25380 12778
L25361 12797
L25343 12834
L25343 12984
" />
<path d="M22155 12759
L22343 12891
" />
<path d="M22155 12984
L22549 12984
L22549 12834
L22530 12797
L22511 12778
L22474 12759
L22418 12759
L22380 12778
L22361 12797
L22343 12834
L22343 12984
" />
<path d="M19155 12759
L19343 12891
" />
<path d="M19155 12984
L19549 12984
L19549 12834
L19530 12797
L19511 12778
L19474 12759
L19418 12759
L19380 12778
L19361 12797
L19343 12834
L19343 12984
" />
<path d="M12424 10351
L12443 10369
L12499 10388
L12537 10388
L12593 10369
L12630 10332
L12649 10294
L12668 10220
L12668 10163
L12649 10088
L12630 10051
L12593 10013
L12537 9995
L12499 9995
L12443 10013
L12424 10032
" />
<path d="M12180 9995
L12105 9995
L12068 10013
L12030 10051
L12012 10126
L12012 10257
L12030 10332
L12068 10369
L12105 10388
L12180 10388
L12218 10369
L12255 10332
L12274 10257
L12274 10126
L12255 10051
L12218 10013
L12180 9995
" />
<path d="M11843 10388
L11843 9995
L11618 10388
L11618 9995
" />
<path d="M11431 10388
L11431 9995
L11206 10388
L11206 9995
" />
<path d="M11112 10426
L10812 10426
" />
<path d="M10643 9995
L10606 9995
L10568 10013
L10549 10032
L10531 10070
L10512 10145
L10512 10238
L10531 10313
L10549 10351
L10568 10369
L10606 10388
L10643 10388
L10681 10369
L10699 10351
L10718 10313
L10737 10238
L10737 10145
L10718 10070
L10699 10032
L10681 10013
L10643 9995
" />
<path d="M10137 10388
L10362 10388
" />
<path d="M10249 10388
L10249 9995
L10287 10051
L10324 10088
L10362 10107
" />
<path d="M10006 9995
L9743 10388
" />
<path d="M9743 9995
L10006 10388
" />
<path d="M9518 9995
L9481 9995
L9443 10013
L9425 10032
L9406 10070
L9387 10145
L9387 10238
L9406 10313
L9425 10351
L9443 10369
L9481 10388
L9518 10388
L9556 10369
L9575 10351
L9593 10313
L9612 10238
L9612 10145
L9593 10070
L9575 10032
L9556 10013
L9518 9995
" />
<path d="M9237 10032
L9218 10013
L9181 9995
L9087 9995
L9050 10013
L9031 10032
L9012 10070
L9012 10107
L9031 10163
L9256 10388
L9012 10388
" />
<path d="M10662 9271
L11056 9271
L11056 9121
L11037 9083
L11018 9065
L10981 9046
L10924 9046
L10887 9065
L10868 9083
L10849 9121
L10849 9271
" />
<path d="M10662 8671
L10662 8896
" />
<path d="M10662 8783
L11056 8783
L10999 8821
L10962 8858
L10943 8896
" />
<path d="M11056 8427
L11056 8390
L11037 8352
L11018 8333
L10981 8315
L10906 8296
L10812 8296
L10737 8315
L10699 8333
L10681 8352
L10662 8390
L10662 8427
L10681 8465
L10699 8483
L10737 8502
L10812 8521
L10906 8521
L10981 8502
L11018 8483
L11037 8465
L11056 8427
" />
<path d="M27674 3601
L27693 3619
L27749 3638
L27787 3638
L27843 3619
L27880 3582
L27899 3544
L27918 3470
L27918 3413
L27899 3338
L27880 3301
L27843 3263
L27787 3245
L27749 3245
L27693 3263
L27674 3282
" />
<path d="M27430 3245
L27355 3245
L27318 3263
L27280 3301
L27262 3376
L27262 3507
L27280 3582
L27318 3619
L27355 3638
L27430 3638
L27468 3619
L27505 3582
L27524 3507
L27524 3376
L27505 3301
L27468 3263
L27430 3245
" />
<path d="M27093 3638
L27093 3245
L26868 3638
L26868 3245
" />
<path d="M26681 3638
L26681 3245
L26456 3638
L26456 3245
" />
<path d="M26362 3676
L26062 3676
" />
<path d="M25893 3245
L25856 3245
L25818 3263
L25799 3282
L25781 3320
L25762 3395
L25762 3488
L25781 3563
L25799 3601
L25818 3619
L25856 3638
L25893 3638
L25931 3619
L25949 3601
L25968 3563
L25987 3488
L25987 3395
L25968 3320
L25949 3282
L25931 3263
L25893 3245
" />
<path d="M25387 3638
L25612 3638
" />
<path d="M25499 3638
L25499 3245
L25537 3301
L25574 3338
L25612 3357
" />
<path d="M25256 3245
L24993 3638
" />
<path d="M24993 3245
L25256 3638
" />
<path d="M24768 3245
L24731 3245
L24693 3263
L24675 3282
L24656 3320
L24637 3395
L24637 3488
L24656 3563
L24675 3601
L24693 3619
L24731 3638
L24768 3638
L24806 3619
L24825 3601
L24843 3563
L24862 3488
L24862 3395
L24843 3320
L24825 3282
L24806 3263
L24768 3245
" />
<path d="M24262 3638
L24487 3638
" />
<path d="M24375 3638
L24375 3245
L24412 3301
L24450 3338
L24487 3357
" />
<path d="M25912 2833
L26306 2833
L26306 2683
L26287 2646
L26268 2627
L26231 2608
L26174 2608
L26137 2627
L26118 2646
L26099 2683
L26099 2833
" />
<path d="M26268 2458
L26287 2440
L26306 2402
L26306 2308
L26287 2271
L26268 2252
L26231 2233
L26193 2233
L26137 2252
L25912 2477
L25912 2233
" />
<path d="M13468 561
L13599 374
" />
<path d="M13693 561
L13693 168
L13543 168
L13506 187
L13487 205
L13468 243
L13468 299
L13487 336
L13506 355
L13543 374
L13693 374
" />
<path d="M27806 18126
L27787 18144
L27768 18201
L27768 18238
L27787 18294
L27824 18332
L27862 18351
L27937 18369
L27993 18369
L28068 18351
L28106 18332
L28143 18294
L28162 18238
L28162 18201
L28143 18144
L28124 18126
" />
<path d="M27768 17957
L28162 17957
L28162 17807
L28143 17769
L28124 17751
L28087 17732
L28031 17732
L27993 17751
L27974 17769
L27956 17807
L27956 17957
" />
<path d="M19924 15601
L19943 15619
L19999 15638
L20037 15638
L20093 15619
L20130 15582
L20149 15544
L20168 15470
L20168 15413
L20149 15338
L20130 15301
L20093 15263
L20037 15245
L19999 15245
L19943 15263
L19924 15282
" />
<path d="M19680 15245
L19605 15245
L19568 15263
L19530 15301
L19512 15376
L19512 15507
L19530 15582
L19568 15619
L19605 15638
L19680 15638
L19718 15619
L19755 15582
L19774 15507
L19774 15376
L19755 15301
L19718 15263
L19680 15245
" />
<path d="M19343 15638
L19343 15245
L19118 15638
L19118 15245
" />
<path d="M18931 15638
L18931 15245
L18706 15638
L18706 15245
" />
<path d="M18612 15676
L18312 15676
" />
<path d="M18143 15245
L18106 15245
L18068 15263
L18049 15282
L18031 15320
L18012 15395
L18012 15488
L18031 15563
L18049 15601
L18068 15619
L18106 15638
L18143 15638
L18181 15619
L18199 15601
L18218 15563
L18237 15488
L18237 15395
L18218 15320
L18199 15282
L18181 15263
L18143 15245
" />
<path d="M17637 15638
L17862 15638
" />
<path d="M17749 15638
L17749 15245
L17787 15301
L17824 15338
L17862 15357
" />
<path d="M17506 15245
L17243 15638
" />
<path d="M17243 15245
L17506 15638
" />
<path d="M17018 15245
L16981 15245
L16943 15263
L16925 15282
L16906 15320
L16887 15395
L16887 15488
L16906 15563
L16925 15601
L16943 15619
L16981 15638
L17018 15638
L17056 15619
L17075 15601
L17093 15563
L17112 15488
L17112 15395
L17093 15320
L17075 15282
L17056 15263
L17018 15245
" />
<path d="M16512 15638
L16737 15638
" />
<path d="M16625 15638
L16625 15245
L16662 15301
L16700 15338
L16737 15357
" />
<path d="M18162 14833
L18556 14833
L18556 14683
L18537 14646
L18518 14627
L18481 14608
L18424 14608
L18387 14627
L18368 14646
L18349 14683
L18349 14833
" />
<path d="M18162 14233
L18162 14458
" />
<path d="M18162 14346
L18556 14346
L18499 14383
L18462 14421
L18443 14458
" />
<path d="M12424 21351
L12443 21369
L12499 21388
L12537 21388
L12593 21369
L12630 21332
L12649 21294
L12668 21220
L12668 21163
L12649 21088
L12630 21051
L12593 21013
L12537 20995
L12499 20995
L12443 21013
L12424 21032
" />
<path d="M12180 20995
L12105 20995
L12068 21013
L12030 21051
L12012 21126
L12012 21257
L12030 21332
L12068 21369
L12105 21388
L12180 21388
L12218 21369
L12255 21332
L12274 21257
L12274 21126
L12255 21051
L12218 21013
L12180 20995
" />
<path d="M11843 21388
L11843 20995
L11618 21388
L11618 20995
" />
<path d="M11431 21388
L11431 20995
L11206 21388
L11206 20995
" />
<path d="M11112 21426
L10812 21426
" />
<path d="M10643 20995
L10606 20995
L10568 21013
L10549 21032
L10531 21070
L10512 21145
L10512 21238
L10531 21313
L10549 21351
L10568 21369
L10606 21388
L10643 21388
L10681 21369
L10699 21351
L10718 21313
L10737 21238
L10737 21145
L10718 21070
L10699 21032
L10681 21013
L10643 20995
" />
<path d="M10137 21388
L10362 21388
" />
<path d="M10249 21388
L10249 20995
L10287 21051
L10324 21088
L10362 21107
" />
<path d="M10006 20995
L9743 21388
" />
<path d="M9743 20995
L10006 21388
" />
<path d="M9518 20995
L9481 20995
L9443 21013
L9425 21032
L9406 21070
L9387 21145
L9387 21238
L9406 21313
L9425 21351
L9443 21369
L9481 21388
L9518 21388
L9556 21369
L9575 21351
L9593 21313
L9612 21238
L9612 21145
L9593 21070
L9575 21032
L9556 21013
L9518 20995
" />
<path d="M9012 21388
L9237 21388
" />
<path d="M9125 21388
L9125 20995
L9162 21051
L9200 21088
L9237 21107
" />
<path d="M10662 20771
L11056 20771
L11056 20621
L11037 20583
L11018 20565
L10981 20546
L10924 20546
L10887 20565
L10868 20583
L10849 20621
L10849 20771
" />
<path d="M10662 20171
L10662 20396
" />
<path d="M10662 20283
L11056 20283
L10999 20321
L10962 20358
L10943 20396
" />
<path d="M11018 20021
L11037 20002
L11056 19965
L11056 19871
L11037 19833
L11018 19815
L10981 19796
L10943 19796
L10887 19815
L10662 20040
L10662 19796
" />
<path d="M14299 3276
L14299 2882
L14149 2882
L14112 2901
L14093 2920
L14074 2957
L14074 3014
L14093 3051
L14112 3070
L14149 3089
L14299 3089
" />
<path d="M13831 2882
L13756 2882
L13718 2901
L13681 2939
L13662 3014
L13662 3145
L13681 3220
L13718 3257
L13756 3276
L13831 3276
L13868 3257
L13906 3220
L13924 3145
L13924 3014
L13906 2939
L13868 2901
L13831 2882
" />
<path d="M13549 2882
L13324 2882
" />
<path d="M13437 3276
L13437 2882
" />
<path d="M14074 4721
L14206 4533
" />
<path d="M14299 4721
L14299 4327
L14149 4327
L14112 4346
L14093 4365
L14074 4402
L14074 4458
L14093 4496
L14112 4515
L14149 4533
L14299 4533
" />
<path d="M13962 4327
L13831 4721
L13699 4327
" />
<path d="M13606 4327
L13362 4327
L13493 4477
L13437 4477
L13399 4496
L13381 4515
L13362 4552
L13362 4646
L13381 4683
L13399 4702
L13437 4721
L13549 4721
L13587 4702
L13606 4683
" />
</g>
<g style="fill:#C2C200; fill-opacity:0.0; 
stroke:#C2C200; stroke-width:39.3701; stroke-opacity:1; 
stroke-linecap:round; stroke-linejoin:round;">
<circle cx="18216.5" cy="10344.5" r="431.102" /> 
<path d="M18716 9840
L18716 11742
" />
<path d="M18716 11742
L18421 11742
" />
<path d="M18421 11742
L18421 11592
" />
<path d="M18421 11592
L15259 11592
" />
<path d="M15259 11592
L15259 11742
" />
<path d="M15259 11742
L14964 11742
" />
<path d="M14964 11742
L14964 9840
" />
<path d="M14964 9840
L18716 9840
" />
<path d="M18543 10618
L17942 10017
" />
<path d="M18490 10671
L17889 10070
" />
<path d="M18858 10486
L18858 9698
" />
<path d="M18858 9698
L18070 9698
" />
<circle cx="13381.7" cy="7834.52" r="787.402" /> 
<path d="M14063 8516
L13813 8266
" />
<path d="M14063 8266
L13813 8516
" />
<circle cx="13385.7" cy="9543.31" r="787.402" /> 
<path d="M12421 9543
L12775 9543
" />
<path d="M12598 9720
L12598 9366
" />
<path d="M12992 11358
L12992 10728
" />
<path d="M12992 10728
L14173 10728
" />
<path d="M14173 10728
L14173 11358
" />
<path d="M14173 11358
L12992 11358
" />
<path d="M9438 14728
L9438 15358
" />
<path d="M9438 15358
L8257 15358
" />
<path d="M8257 15358
L8257 14728
" />
<path d="M8257 14728
L9438 14728
" />
<path d="M10905 18891
L10275 18891
" />
<path d="M10275 18891
L10275 17710
" />
<path d="M10275 17710
L10905 17710
" />
<path d="M10905 17710
L10905 18891
" />
<circle cx="8848.35" cy="13043.3" r="1476.38" /> 
<path d="M10206 13043
L9734 13043
" />
<path d="M9970 12787
L9970 13299
" />
<path d="M24431 5184.18 A748.031 748.031 0.0 1 0 24431.2 6102.16 " />
<circle cx="23840.5" cy="5643.31" r="590.551" /> 
<path d="M24431 5184
L24431 6102
" />
<path d="M13155 1854
L14533 1854
" />
<path d="M13840.5 3519.69 A976.378 976.378 0.0 0 0 14530.9 1852.9 " />
<path d="M13150.1 1852.9 A976.378 976.378 0.0 0 0 13840.5 3519.69 " />
<path d="M24340 2043
L23590 2043
" />
<path d="M23590 2043
L23590 3043
" />
<path d="M23590 3043
L24590 3043
" />
<path d="M24590 3043
L24590 2293
" />
<path d="M24590 2293
L24340 2043
" />
<path d="M25340 2043
L24590 2043
" />
<path d="M24590 2043
L24590 3043
" />
<path d="M24590 3043
L25590 3043
" />
<path d="M25590 3043
L25590 2293
" />
<path d="M25590 2293
L25340 2043
" />
<path d="M29848 1553
L30832 1553
" />
<path d="M30832 1553
L30832 4033
" />
<path d="M30832 4033
L29848 4033
" />
<path d="M29848 4033
L29848 1553
" />
<path d="M30340 793
L30340 1553
" />
<path d="M30340 4793
L30340 4033
" />
<path d="M18080 5801
L18080 6785
" />
<path d="M18080 6785
L15600 6785
" />
<path d="M15600 6785
L15600 5801
" />
<path d="M15600 5801
L18080 5801
" />
<path d="M18840 6293
L18080 6293
" />
<path d="M14840 6293
L15600 6293
" />
<path d="M28580 4051
L28580 5035
" />
<path d="M28580 5035
L26100 5035
" />
<path d="M26100 5035
L26100 4051
" />
<path d="M26100 4051
L28580 4051
" />
<path d="M29340 4543
L28580 4543
" />
<path d="M25340 4543
L26100 4543
" />
<path d="M31848 14303
L32832 14303
" />
<path d="M32832 14303
L32832 16783
" />
<path d="M32832 16783
L31848 16783
" />
<path d="M31848 16783
L31848 14303
" />
<path d="M32340 13543
L32340 14303
" />
<path d="M32340 17543
L32340 16783
" />
<path d="M15600 9535
L15600 8551
" />
<path d="M15600 8551
L18080 8551
" />
<path d="M18080 8551
L18080 9535
" />
<path d="M18080 9535
L15600 9535
" />
<path d="M14840 9043
L15600 9043
" />
<path d="M18840 9043
L18080 9043
" />
<path d="M15350 17035
L15350 16051
" />
<path d="M15350 16051
L17830 16051
" />
<path d="M17830 16051
L17830 17035
" />
<path d="M17830 17035
L15350 17035
" />
<path d="M14590 16543
L15350 16543
" />
<path d="M18590 16543
L17830 16543
" />
<path d="M17830 17301
L17830 18285
" />
<path d="M17830 18285
L15350 18285
" />
<path d="M15350 18285
L15350 17301
" />
<path d="M15350 17301
L17830 17301
" />
<path d="M18590 17793
L17830 17793
" />
<path d="M14590 17793
L15350 17793
" />
<path d="M12600 19535
L12600 18551
" />
<path d="M12600 18551
L15080 18551
" />
<path d="M15080 18551
L15080 19535
" />
<path d="M15080 19535
L12600 19535
" />
<path d="M11840 19043
L12600 19043
" />
<path d="M15840 19043
L15080 19043
" />
<path d="M15080 19801
L15080 20785
" />
<path d="M15080 20785
L12600 20785
" />
<path d="M12600 20785
L12600 19801
" />
<path d="M12600 19801
L15080 19801
" />
<path d="M15840 20293
L15080 20293
" />
<path d="M11840 20293
L12600 20293
" />
<circle cx="17214.5" cy="2992.13" r="431.102" /> 
<path d="M16714 3496
L16714 1594
" />
<path d="M16714 1594
L17009 1594
" />
<path d="M17009 1594
L17009 1744
" />
<path d="M17009 1744
L20171 1744
" />
<path d="M20171 1744
L20171 1594
" />
<path d="M20171 1594
L20466 1594
" />
<path d="M20466 1594
L20466 3496
" />
<path d="M20466 3496
L16714 3496
" />
<path d="M16887 2718
L17488 3319
" />
<path d="M16940 2665
L17541 3266
" />
<path d="M16572 2850
L16572 3637
" />
<path d="M16572 3637
L17360 3637
" />
<path d="M34112 12511
L32379 12511
" />
<path d="M32379 12511
L32379 8574
" />
<path d="M32379 8574
L34112 8574
" />
<path d="M34112 8574
L34112 12511
" />
<path d="M33612 12511
L33612 8574
" />
<path d="M34112 11271
L33612 11271
" />
<path d="M34112 9814
L33612 9814
" />
<path d="M32379 12043
L32340 12043
" />
<path d="M32379 11543
L30883 11543
" />
<path d="M32379 11043
L32340 11043
" />
<path d="M32379 10543
L30883 10543
" />
<path d="M32379 10043
L32340 10043
" />
<path d="M32379 9543
L30883 9543
" />
<path d="M32379 9043
L32340 9043
" />
<path d="M27401 2728
L27401 1350
" />
<path d="M29066.8 2043.31 A976.378 976.378 0.0 0 0 27400.1 1352.9 " />
<path d="M27400.1 2733.71 A976.378 976.378 0.0 0 0 29066.8 2043.31 " />
<path d="M13734 15793
L15840 15793
" />
<path d="M15840 15793
L15840 11793
" />
<path d="M15840 11793
L13340 11793
" />
<path d="M13340 11793
L13340 15399
" />
<path d="M13340 15399
L13734 15793
" />
<path d="M23090 3043
L23090 1543
" />
<path d="M23090 1543
L21090 1543
" />
<path d="M21090 1543
L21090 3543
" />
<path d="M21090 3543
L22590 3543
" />
<path d="M22590 3543
L23090 3043
" />
<path d="M28270 16818
L25751 16818
" />
<path d="M25751 16818
L25751 8944
" />
<path d="M25751 8944
L28270 8944
" />
<path d="M28270 8944
L28270 16818
" />
<path d="M27010 17881
L27010 16818
" />
<path d="M27010 7881
L27010 8944
" />
<path d="M25270 16818
L22751 16818
" />
<path d="M22751 16818
L22751 8944
" />
<path d="M22751 8944
L25270 8944
" />
<path d="M25270 8944
L25270 16818
" />
<path d="M24010 17881
L24010 16818
" />
<path d="M24010 7881
L24010 8944
" />
<path d="M22270 16818
L19751 16818
" />
<path d="M19751 16818
L19751 8944
" />
<path d="M19751 8944
L22270 8944
" />
<path d="M22270 8944
L22270 16818
" />
<path d="M21010 17881
L21010 16818
" />
<path d="M21010 7881
L21010 8944
" />
<path d="M11090 7793
L10340 7793
" />
<path d="M10340 7793
L10340 9793
" />
<path d="M10340 9793
L11340 9793
" />
<path d="M11340 9793
L11340 8043
" />
<path d="M11340 8043
L11090 7793
" />
<path d="M26340 2043
L25590 2043
" />
<path d="M25590 2043
L25590 3043
" />
<path d="M25590 3043
L26590 3043
" />
<path d="M26590 3043
L26590 2293
" />
<path d="M26590 2293
L26340 2043
" />
<path d="M12350 1785
L12350 801
" />
<path d="M12350 801
L14830 801
" />
<path d="M14830 801
L14830 1785
" />
<path d="M14830 1785
L12350 1785
" />
<path d="M11590 1293
L12350 1293
" />
<path d="M15590 1293
L14830 1293
" />
<circle cx="29840.5" cy="18051.2" r="1476.38" /> 
<path d="M29840 19409
L29840 18937
" />
<path d="M30096 19173
L29584 19173
" />
<path d="M18590 14043
L17840 14043
" />
<path d="M17840 14043
L17840 15043
" />
<path d="M17840 15043
L18840 15043
" />
<path d="M18840 15043
L18840 14293
" />
<path d="M18840 14293
L18590 14043
" />
<path d="M11090 19793
L10340 19793
" />
<path d="M10340 19793
L10340 20793
" />
<path d="M10340 20793
L11340 20793
" />
<path d="M11340 20793
L11340 20043
" />
<path d="M11340 20043
L11090 19793
" />
<circle cx="12464.5" cy="4992.13" r="431.102" /> 
<path d="M11964 5496
L11964 3594
" />
<path d="M11964 3594
L12259 3594
" />
<path d="M12259 3594
L12259 3744
" />
<path d="M12259 3744
L15421 3744
" />
<path d="M15421 3744
L15421 3594
" />
<path d="M15421 3594
L15716 3594
" />
<path d="M15716 3594
L15716 5496
" />
<path d="M15716 5496
L11964 5496
" />
<path d="M12137 4718
L12738 5319
" />
<path d="M12190 4665
L12791 5266
" />
<path d="M11822 4850
L11822 5637
" />
<path d="M11822 5637
L12610 5637
" />
</g> 
</svg>
