<?xml version="1.0" standalone="no"?>
 <!DOCTYPE svg PUBLIC "-//W3C//DTD SVG 1.1//EN" 
 "http://www.w3.org/Graphics/SVG/1.1/DTD/svg11.dtd"> 
<svg xmlns="http://www.w3.org/2000/svg" version="1.1" 
    width="8.92048cm" height="6.7564cm" viewBox="0 0 35120 26600 ">
<title>SVG Picture created as temp_reg-Eco2.User.svg date 2017/10/27 07:26:09 </title>
  <desc>Picture generated by PCBNEW </desc>
<g style="fill:#000000; fill-opacity:1;stroke:#000000; stroke-opacity:1;
stroke-linecap:round; stroke-linejoin:round; "
 transform="translate(0 0) scale(1 1)">
</g>
<g style="fill:#C2C200; fill-opacity:0.0; 
stroke:#C2C200; stroke-width:-0.000393701; stroke-opacity:1; 
stroke-linecap:round; stroke-linejoin:round;">
</g>
<g style="fill:#C2C200; fill-opacity:0.0; 
stroke:#C2C200; stroke-width:118.11; stroke-opacity:1; 
stroke-linecap:round; stroke-linejoin:round;">
<path d="M2882 13430
L2882 13711
L2601 13739
L2629 13711
L2657 13655
L2657 13514
L2629 13458
L2601 13430
L2544 13402
L2404 13402
L2348 13430
L2319 13458
L2291 13514
L2291 13655
L2319 13711
L2348 13739
" />
<path d="M2882 13205
L2882 12811
L2291 13064
" />
<path d="M2348 12586
L2319 12558
L2291 12586
L2319 12615
L2348 12586
L2291 12586
" />
<path d="M2291 11996
L2291 12333
" />
<path d="M2291 12165
L2882 12165
L2798 12221
L2741 12277
L2713 12333
" />
<path d="M2882 11462
L2882 11743
L2601 11771
L2629 11743
L2657 11687
L2657 11546
L2629 11490
L2601 11462
L2544 11433
L2404 11433
L2348 11462
L2319 11490
L2291 11546
L2291 11687
L2319 11743
L2348 11771
" />
<path d="M2882 11068
L2882 11012
L2854 10955
L2826 10927
L2769 10899
L2657 10871
L2516 10871
L2404 10899
L2348 10927
L2319 10955
L2291 11012
L2291 11068
L2319 11124
L2348 11152
L2404 11180
L2516 11208
L2657 11208
L2769 11180
L2826 11152
L2854 11124
L2882 11068
" />
<path d="M2291 10168
L2685 10168
" />
<path d="M2629 10168
L2657 10140
L2685 10084
L2685 9999
L2657 9943
L2601 9915
L2291 9915
" />
<path d="M2601 9915
L2657 9887
L2685 9830
L2685 9746
L2657 9690
L2601 9662
L2291 9662
" />
<path d="M2291 9381
L2685 9381
" />
<path d="M2629 9381
L2657 9352
L2685 9296
L2685 9212
L2657 9156
L2601 9127
L2291 9127
" />
<path d="M2601 9127
L2657 9099
L2685 9043
L2685 8959
L2657 8902
L2601 8874
L2291 8874
" />
<path d="M3090 22543
L3090 43
" />
<path d="M6590 22543
L2027 22543
" />
<path d="M6590 43
L2027 43
" />
<path d="M3090 43
L2859 486
" />
<path d="M3090 43
L3321 486
" />
<path d="M3090 22543
L2859 22099
" />
<path d="M3090 22543
L3321 22099
" />
<path d="M23315 25751
L22921 25751
L23174 26341
" />
<path d="M22724 25807
L22696 25779
L22640 25751
L22499 25751
L22443 25779
L22415 25807
L22387 25863
L22387 25920
L22415 26004
L22752 26341
L22387 26341
" />
<path d="M22134 26285
L22105 26313
L22134 26341
L22162 26313
L22134 26285
L22134 26341
" />
<path d="M21909 25751
L21543 25751
L21740 25976
L21655 25976
L21599 26004
L21571 26032
L21543 26088
L21543 26229
L21571 26285
L21599 26313
L21655 26341
L21824 26341
L21880 26313
L21909 26285
" />
<path d="M21262 26341
L21149 26341
L21093 26313
L21065 26285
L21009 26201
L20981 26088
L20981 25863
L21009 25807
L21037 25779
L21093 25751
L21206 25751
L21262 25779
L21290 25807
L21318 25863
L21318 26004
L21290 26060
L21262 26088
L21206 26116
L21093 26116
L21037 26088
L21009 26060
L20981 26004
" />
<path d="M20615 25751
L20559 25751
L20503 25779
L20474 25807
L20446 25863
L20418 25976
L20418 26116
L20446 26229
L20474 26285
L20503 26313
L20559 26341
L20615 26341
L20671 26313
L20699 26285
L20727 26229
L20756 26116
L20756 25976
L20727 25863
L20699 25807
L20671 25779
L20615 25751
" />
<path d="M19715 26341
L19715 25948
" />
<path d="M19715 26004
L19687 25976
L19631 25948
L19546 25948
L19490 25976
L19462 26032
L19462 26341
" />
<path d="M19462 26032
L19434 25976
L19378 25948
L19293 25948
L19237 25976
L19209 26032
L19209 26341
" />
<path d="M18928 26341
L18928 25948
" />
<path d="M18928 26004
L18900 25976
L18843 25948
L18759 25948
L18703 25976
L18675 26032
L18675 26341
" />
<path d="M18675 26032
L18646 25976
L18590 25948
L18506 25948
L18450 25976
L18422 26032
L18422 26341
" />
<path d="M6590 25543
L35090 25543
" />
<path d="M6590 22543
L6590 26606
" />
<path d="M35090 22543
L35090 26606
" />
<path d="M35090 25543
L34646 25312
" />
<path d="M35090 25543
L34646 25774
" />
<path d="M6590 25543
L7033 25312
" />
<path d="M6590 25543
L7033 25774
" />
</g>
<g style="fill:#C2C200; fill-opacity:0.0; 
stroke:#C2C200; stroke-width:59.0551; stroke-opacity:1; 
stroke-linecap:round; stroke-linejoin:round;">
<path d="M6590 43
L6590 22543
" />
<path d="M35090 43
L6590 43
" />
<path d="M35090 22543
L35090 43
" />
<path d="M6590 22543
L35090 22543
" />
</g> 
</svg>
